<?xml version="1.0" encoding="utf-8"?>
<!-- Generator: Adobe Illustrator 27.5.0, SVG Export Plug-In . SVG Version: 6.00 Build 0)  -->
<svg version="1.1" xmlns="http://www.w3.org/2000/svg" xmlns:xlink="http://www.w3.org/1999/xlink" x="0px" y="0px"
	 viewBox="0 0 500 500" style="enable-background:new 0 0 500 500;" xml:space="preserve">
<g id="BACKGROUND">
	<linearGradient id="SVGID_1_" gradientUnits="userSpaceOnUse" x1="247.1615" y1="-67.8812" x2="253.3032" y2="619.9217">
		<stop  offset="2.700000e-07" style="stop-color:#96CEFC"/>
		<stop  offset="1" style="stop-color:#263DEA"/>
	</linearGradient>
	<rect style="opacity:0.15;fill:transparent;" width="500" height="500"/>
</g>
<g id="OBJECTS">
	<g>
		<g>
			
				<linearGradient id="SVGID_00000163759862549640638300000015154275971984789135_" gradientUnits="userSpaceOnUse" x1="385.346" y1="321.0369" x2="393.4537" y2="488.4763">
				<stop  offset="2.700000e-07" style="stop-color:#96CEFC"/>
				<stop  offset="1" style="stop-color:#263DEA"/>
			</linearGradient>
			<path style="opacity:0.15;fill:url(#SVGID_00000163759862549640638300000015154275971984789135_);" d="M388.463,378.502v-14.669
				c0,0,18.719-4.963,22.548-22.406c-12.196,3.829-20.846,13.898-22.548,18.152c-0.993-18.719-12.196-30.915-23.541-32.333
				c-0.425,15.599,20.421,30.206,20.421,30.206v33.426c-2.419-4.635-10.722-13.674-22.129-17.255
				c3.492,15.908,19.362,21.434,22.129,22.284v0.385l0.419-0.156v32.351l0.5-0.975l2.62,0.975v-38.839
				c0,0,20.846-14.607,20.421-30.206C400.926,360.487,392.632,367.415,388.463,378.502z"/>
			
				<linearGradient id="SVGID_00000070079553450037929620000017256516235992094097_" gradientUnits="userSpaceOnUse" x1="170.2444" y1="321.0369" x2="178.3521" y2="488.4763">
				<stop  offset="2.700000e-07" style="stop-color:#96CEFC"/>
				<stop  offset="1" style="stop-color:#263DEA"/>
			</linearGradient>
			<path style="opacity:0.15;fill:url(#SVGID_00000070079553450037929620000017256516235992094097_);" d="M173.362,378.502v-14.669
				c0,0,18.719-4.963,22.548-22.406c-12.196,3.829-20.846,13.898-22.548,18.152c-0.993-18.719-12.196-30.915-23.541-32.333
				c-0.426,15.599,20.421,30.206,20.421,30.206v33.426c-2.419-4.635-10.722-13.674-22.129-17.255
				c3.492,15.908,19.362,21.434,22.129,22.284v0.385l0.419-0.156v32.351l0.5-0.975l2.62,0.975v-38.839
				c0,0,20.846-14.607,20.421-30.206C185.825,360.487,177.531,367.415,173.362,378.502z"/>
			<g>
				<path style="fill:#FFFFFF;" d="M115.501,428.485v-40.34c0,0-23.265-6.169-28.024-27.848
					c15.158,4.759,25.909,17.273,28.024,22.56c1.234-23.265,15.158-38.423,29.258-40.185c0.529,19.388-25.38,37.542-25.38,37.542
					v48.271l-3.257-1.212"/>
				<path style="fill:#FFFFFF;" d="M118.858,388.471v-40.34c0,0,23.265-6.169,28.024-27.848
					c-15.158,4.759-25.909,17.273-28.024,22.56c-1.234-23.265-15.158-38.423-29.258-40.186c-0.529,19.388,25.38,37.542,25.38,37.542
					v48.271l3.257-1.212"/>
			</g>
			<g>
				<path style="fill:#FFFFFF;" d="M412.2,428.485v-32.457c0,0-18.719-4.963-22.548-22.406
					c12.196,3.829,20.846,13.898,22.548,18.152c0.993-18.719,12.196-30.915,23.541-32.333c0.425,15.599-20.421,30.206-20.421,30.206
					v38.839l-2.62-0.975"/>
				<path style="fill:#FFFFFF;" d="M414.901,396.29v-32.457c0,0,18.719-4.963,22.548-22.406
					c-12.196,3.829-20.846,13.898-22.548,18.152c-0.993-18.719-12.196-30.915-23.541-32.333
					c-0.425,15.599,20.421,30.206,20.421,30.206v38.839l2.62-0.975"/>
			</g>
			<g style="opacity:0.45;">
				<g>
					<path style="fill:none;stroke:#6E38EA;stroke-width:0.7766;stroke-linecap:round;stroke-linejoin:round;" d="M224.476,129.927
						c0.384-0.354,0.76-0.713,1.126-1.077"/>
					
						<path style="fill:none;stroke:#6E38EA;stroke-width:0.7766;stroke-linecap:round;stroke-linejoin:round;stroke-dasharray:3.1531,5.2551;" d="
						M229.093,124.925c13.392-17.1,9.814-39.868-3.912-33.735c-15.121,6.756-10.23,31.307,15.216,35.819
						c25.447,4.513,41.045-18.003,27.562-24.194c-12.913-5.929-26.488,47.013-1.437,65.251"/>
					<path style="fill:none;stroke:#6E38EA;stroke-width:0.7766;stroke-linecap:round;stroke-linejoin:round;" d="M268.716,169.513
						c0.442,0.263,0.895,0.517,1.358,0.76"/>
				</g>
			</g>
			<g>
				<path style="fill:#6E38EA;" d="M287.178,75.731c0,0-28.419,5.532-30.116,7.281c-1.697,1.75,15.151,3.436,15.151,3.436
					L287.178,75.731z"/>
				<polygon style="fill:#442C87;" points="275.229,88.371 271.943,95.85 280.994,86.519 				"/>
				<path style="fill:#6E38EA;" d="M287.178,75.731l-11.949,12.64c0,0,9.802,7.138,12.44,7.301
					C290.309,95.834,285.684,80.628,287.178,75.731z"/>
			</g>
			
				<ellipse transform="matrix(0.6782 -0.7349 0.7349 0.6782 -76.6859 124.2426)" style="opacity:0.15;fill:none;stroke:#6E38EA;stroke-width:0.7766;stroke-linecap:round;stroke-linejoin:round;stroke-miterlimit:10;stroke-dasharray:3.1065,3.1065;" cx="103.516" cy="149.68" rx="7.696" ry="7.696"/>
			
				<ellipse transform="matrix(0.6825 -0.7309 0.7309 0.6825 -135.1807 288.0307)" style="opacity:0.15;fill:none;stroke:#6E38EA;stroke-width:0.7766;stroke-linecap:round;stroke-linejoin:round;stroke-miterlimit:10;stroke-dasharray:3.1065,3.1065;" cx="263.918" cy="299.601" rx="7.696" ry="7.696"/>
			
				<ellipse transform="matrix(0.7071 -0.7071 0.7071 0.7071 28.4127 312.4391)" style="opacity:0.15;fill:none;stroke:#6E38EA;stroke-width:0.7766;stroke-linecap:round;stroke-linejoin:round;stroke-miterlimit:10;stroke-dasharray:3.1065,3.1065;" cx="391.354" cy="121.922" rx="7.696" ry="7.696"/>
			<path style="fill:#FFFFFF;" d="M401.564,243.785c0,2.328-1.888,4.216-4.216,4.216c-2.329,0-4.216-1.888-4.216-4.216
				c0-2.329,1.888-4.216,4.216-4.216C399.677,239.568,401.564,241.456,401.564,243.785z"/>
			<path style="fill:#FFFFFF;" d="M70.983,113.488c0,2.329-1.888,4.216-4.216,4.216c-2.329,0-4.216-1.888-4.216-4.216
				c0-2.328,1.888-4.216,4.216-4.216C69.096,109.272,70.983,111.159,70.983,113.488z"/>
			<path style="fill:#FFFFFF;" d="M435.747,158.067c0,2.328-1.888,4.216-4.216,4.216s-4.216-1.888-4.216-4.216
				c0-2.329,1.888-4.216,4.216-4.216S435.747,155.738,435.747,158.067z"/>
			<path style="fill:#FFFFFF;" d="M247.264,261.676c0,2.329-1.888,4.216-4.216,4.216c-2.329,0-4.216-1.888-4.216-4.216
				c0-2.329,1.888-4.216,4.216-4.216C245.377,257.46,247.264,259.347,247.264,261.676z"/>
			<path style="fill:#FFFFFF;" d="M204.744,75.731c0,2.328-1.888,4.216-4.216,4.216s-4.216-1.888-4.216-4.216
				c0-2.329,1.888-4.216,4.216-4.216S204.744,73.403,204.744,75.731z"/>
			<path style="fill:#FFFFFF;" d="M91.693,270.866c0,2.329-1.888,4.216-4.216,4.216s-4.216-1.888-4.216-4.216
				c0-2.328,1.888-4.216,4.216-4.216S91.693,268.538,91.693,270.866z"/>
		</g>
		<g>
			<g>
				
					<linearGradient id="SVGID_00000089537688924354959160000005683596902159343762_" gradientUnits="userSpaceOnUse" x1="222.8026" y1="425.8243" x2="210.8174" y2="312.6702">
					<stop  offset="4.100000e-07" style="stop-color:#F0C9CF"/>
					<stop  offset="1" style="stop-color:#D683A7"/>
				</linearGradient>
				<polygon style="fill:url(#SVGID_00000089537688924354959160000005683596902159343762_);" points="208.987,400.659 
					216.478,420.4 231.195,420.4 232.958,416.434 225.731,393.521 				"/>
				
					<linearGradient id="SVGID_00000116952758774210884870000001361623146176309167_" gradientUnits="userSpaceOnUse" x1="144.9369" y1="421.295" x2="170.846" y2="334.5789">
					<stop  offset="4.100000e-07" style="stop-color:#F0C9CF"/>
					<stop  offset="1" style="stop-color:#D683A7"/>
				</linearGradient>
				<polyline style="fill:url(#SVGID_00000116952758774210884870000001361623146176309167_);" points="139.808,399.514 
					139.808,417.403 149.59,422.779 156.288,422.25 157.698,398.544 				"/>
				
					<linearGradient id="SVGID_00000130604882066219452130000013555768909991140229_" gradientUnits="userSpaceOnUse" x1="170.1898" y1="450.2168" x2="192.9261" y2="127.1471">
					<stop  offset="0" style="stop-color:#8F9DC1"/>
					<stop  offset="1" style="stop-color:#5561A0"/>
				</linearGradient>
				<path style="fill:url(#SVGID_00000130604882066219452130000013555768909991140229_);" d="M229.87,395.374l-21.807,8.191
					l-38.996-103.9l-8.729,102.585h-22.998c0,0-6.637-92.572-7.807-138.413c-0.166-6.7-0.228-12.405-0.124-16.671l-0.052-9.889
					h63.237l0.756,3.22L229.87,395.374z"/>
				
					<linearGradient id="SVGID_00000148639765497752967630000014757847419508183701_" gradientUnits="userSpaceOnUse" x1="160.5448" y1="249.2561" x2="194.0326" y2="333.5045">
					<stop  offset="0" style="stop-color:#303563"/>
					<stop  offset="1" style="stop-color:#5561A0"/>
				</linearGradient>
				<path style="fill:url(#SVGID_00000148639765497752967630000014757847419508183701_);" d="M193.348,240.497
					c-9.133,5.074-33.011,8.75-47.549,5.768c-2.123,8.605-9.899,16.267-16.267,17.572c-0.166-6.7-0.228-12.405-0.124-16.671
					l-0.052-9.889h63.237L193.348,240.497z"/>
				<g>
					<path style="fill:#FFFFFF;" d="M224.115,165.946l-13.463-1.853c-1.64-0.226-2.787-1.738-2.561-3.379l3.673-26.686
						c0.226-1.64,1.738-2.787,3.379-2.561l13.463,1.853c1.64,0.226,2.787,1.739,2.561,3.379l-3.673,26.686
						C227.268,165.025,225.755,166.172,224.115,165.946z"/>
					<path style="fill:#383258;" d="M229.465,175.281l-13.923-1.578c-1.408-0.16-2.421-1.431-2.261-2.839l3.367-29.707
						c0.16-1.409,1.431-2.421,2.839-2.261l13.923,1.578c1.409,0.16,2.421,1.431,2.261,2.839l-3.367,29.707
						C232.144,174.428,230.873,175.441,229.465,175.281z"/>
					<path style="fill:#514388;" d="M232.004,175.569l-13.923-1.578c-1.409-0.16-2.421-1.431-2.261-2.839l3.367-29.707
						c0.16-1.409,1.431-2.421,2.839-2.261l13.923,1.578c1.409,0.16,2.421,1.431,2.261,2.839l-3.367,29.707
						C234.684,174.716,233.413,175.728,232.004,175.569z"/>
					<circle style="fill:#7465C4;" cx="222.955" cy="143.419" r="1.52"/>
					<path style="fill:#7465C4;" d="M230.64,156.562c0,2.002-1.623,3.625-3.625,3.625c-2.002,0-3.625-1.623-3.625-3.625
						c0-2.002,1.623-3.625,3.625-3.625C229.017,152.937,230.64,154.56,230.64,156.562z"/>
				</g>
				
					<linearGradient id="SVGID_00000041984691851569007040000000167409220836045489_" gradientUnits="userSpaceOnUse" x1="231.8685" y1="192.3513" x2="70.6133" y2="168.5596">
					<stop  offset="4.100000e-07" style="stop-color:#F0C9CF"/>
					<stop  offset="1" style="stop-color:#D683A7"/>
				</linearGradient>
				<path style="fill:url(#SVGID_00000041984691851569007040000000167409220836045489_);" d="M235.751,175.251l-17.137,42.04
					c-1.791,4.38-5.757,7.497-10.438,8.191c-0.663,0.104-1.325,0.145-1.978,0.145c-5.322,0-10.231-3.189-12.333-8.222l-5.892-14.062
					l0.632-3.966l2.009-12.685l11.142-6.876l4.473,10.376l2.32,5.395c0,0,18.773-23.267,19.912-24.934
					c1.149-1.678-6.72-2.34-5.923-5.312c0.787-2.972,4.494-2.516,4.494-2.516s-2.972-1.388-2.05-3.034
					c0.87-1.564,4.411-1.709,4.794-1.719c-0.3,0-2.661-0.052-1.357-1.791c1.387-1.843,9.516-1.781,11.566,4.494
					C242.036,167.061,235.751,175.251,235.751,175.251z"/>
				<path style="fill:#D683A7;" d="M206.229,190.193c-5.146,7.932-15.553,16.744-15.553,16.744l-2.071-7.559l2.009-12.685
					l11.142-6.876L206.229,190.193z"/>
				
					<linearGradient id="SVGID_00000122703355802505592760000004870455810419820445_" gradientUnits="userSpaceOnUse" x1="153.2309" y1="125.6553" x2="179.4043" y2="359.63">
					<stop  offset="0" style="stop-color:#CAB4FB"/>
					<stop  offset="1" style="stop-color:#6E38EA"/>
				</linearGradient>
				<path style="fill:url(#SVGID_00000122703355802505592760000004870455810419820445_);" d="M208.062,186.383
					c-6.078,8.46-12.954,9.516-12.954,9.516s-1.191,33.446,0,42.827c-14.87,5.923-38.251,8.253-54.125,3.686
					c-3.604-1.035-6.824-2.433-9.464-4.214c-0.393-3.231-0.445-7.083-0.321-10.976c0.342-10.593,2.04-21.538,2.04-21.538
					c-0.238,0-0.476-0.01-0.715-0.031c-10.551-0.404-15.832-6.151-18.204-10.034c-1.243-2.029-1.698-3.552-1.698-3.552
					s8.191-27.368,14.404-36.615c6.213-9.257,17.852-8.729,30.412-14.279l15.864,1.719c0,0,13.875,2.382,18.898,6.078
					C197.221,152.668,201.052,171.71,208.062,186.383z"/>
				<g>
					<defs>
						<path id="SVGID_00000049934991781289404930000009753398554830261394_" d="M208.062,186.383
							c-6.078,8.46-12.954,9.516-12.954,9.516s-1.191,33.446,0,42.827c-14.87,5.923-38.251,8.253-54.125,3.686
							c-3.604-1.035-6.824-2.433-9.464-4.214c-0.393-3.231-0.445-7.083-0.321-10.976c0.342-10.593,2.04-21.538,2.04-21.538
							c-0.238,0-0.476-0.01-0.715-0.031c-10.551-0.404-15.832-6.151-18.204-10.034c-1.243-2.029-1.698-3.552-1.698-3.552
							s8.191-27.368,14.404-36.615c6.213-9.257,17.852-8.729,30.412-14.279l15.864,1.719c0,0,13.875,2.382,18.898,6.078
							C197.221,152.668,201.052,171.71,208.062,186.383z"/>
					</defs>
					<clipPath id="SVGID_00000035520193069562165060000006925699952954450358_">
						<use xlink:href="#SVGID_00000049934991781289404930000009753398554830261394_"  style="overflow:visible;"/>
					</clipPath>
					
						<path style="opacity:0.25;clip-path:url(#SVGID_00000035520193069562165060000006925699952954450358_);fill:none;stroke:#FFFFFF;stroke-width:1.0355;stroke-miterlimit:10;" d="
						M183.23,174.709c0,3.591-2.911,6.502-6.502,6.502s-6.502-2.911-6.502-6.502c0-3.591,2.911-6.502,6.502-6.502
						S183.23,171.118,183.23,174.709z"/>
					
						<path style="opacity:0.25;clip-path:url(#SVGID_00000035520193069562165060000006925699952954450358_);fill:none;stroke:#FFFFFF;stroke-width:1.0355;stroke-miterlimit:10;" d="
						M127.319,173.803c0,3.591-2.911,6.502-6.502,6.502c-3.591,0-6.502-2.911-6.502-6.502c0-3.591,2.911-6.502,6.502-6.502
						C124.408,167.301,127.319,170.212,127.319,173.803z"/>
					
						<circle style="opacity:0.25;clip-path:url(#SVGID_00000035520193069562165060000006925699952954450358_);fill:none;stroke:#FFFFFF;stroke-width:1.0355;stroke-miterlimit:10;" cx="133.243" cy="206.341" r="6.502"/>
					
						<path style="opacity:0.25;clip-path:url(#SVGID_00000035520193069562165060000006925699952954450358_);fill:none;stroke:#FFFFFF;stroke-width:1.0355;stroke-miterlimit:10;" d="
						M151.865,185.108c0,3.591-2.911,6.502-6.502,6.502c-3.591,0-6.502-2.911-6.502-6.502c0-3.591,2.911-6.502,6.502-6.502
						C148.954,178.606,151.865,181.517,151.865,185.108z"/>
					
						<path style="opacity:0.25;clip-path:url(#SVGID_00000035520193069562165060000006925699952954450358_);fill:none;stroke:#FFFFFF;stroke-width:1.0355;stroke-miterlimit:10;" d="
						M162.757,159.952c0,3.591-2.911,6.502-6.502,6.502c-3.591,0-6.502-2.911-6.502-6.502s2.911-6.502,6.502-6.502
						C159.845,153.45,162.757,156.361,162.757,159.952z"/>
					
						<path style="opacity:0.25;clip-path:url(#SVGID_00000035520193069562165060000006925699952954450358_);fill:none;stroke:#FFFFFF;stroke-width:1.0355;stroke-miterlimit:10;" d="
						M174.261,199.498c0,3.591-2.911,6.502-6.502,6.502c-3.591,0-6.502-2.911-6.502-6.502c0-3.591,2.911-6.502,6.502-6.502
						C171.35,192.996,174.261,195.907,174.261,199.498z"/>
					
						<path style="opacity:0.25;clip-path:url(#SVGID_00000035520193069562165060000006925699952954450358_);fill:none;stroke:#FFFFFF;stroke-width:1.0355;stroke-miterlimit:10;" d="
						M157.008,221.807c0,3.591-2.911,6.502-6.502,6.502s-6.502-2.911-6.502-6.502c0-3.591,2.911-6.502,6.502-6.502
						S157.008,218.216,157.008,221.807z"/>
					
						<path style="opacity:0.25;clip-path:url(#SVGID_00000035520193069562165060000006925699952954450358_);fill:none;stroke:#FFFFFF;stroke-width:1.0355;stroke-miterlimit:10;" d="
						M201.286,193.378c0,3.591-2.911,6.502-6.502,6.502c-3.591,0-6.502-2.911-6.502-6.502s2.911-6.502,6.502-6.502
						C198.375,186.876,201.286,189.787,201.286,193.378z"/>
					
						<path style="opacity:0.25;clip-path:url(#SVGID_00000035520193069562165060000006925699952954450358_);fill:none;stroke:#FFFFFF;stroke-width:1.0355;stroke-miterlimit:10;" d="
						M187.671,223.35c0,3.591-2.911,6.502-6.502,6.502c-3.591,0-6.502-2.911-6.502-6.502c0-3.591,2.911-6.502,6.502-6.502
						C184.76,216.848,187.671,219.759,187.671,223.35z"/>
					
						<path style="opacity:0.25;clip-path:url(#SVGID_00000035520193069562165060000006925699952954450358_);fill:none;stroke:#FFFFFF;stroke-width:1.0355;stroke-miterlimit:10;" d="
						M187.671,149.921c0,3.591-2.911,6.502-6.502,6.502c-3.591,0-6.502-2.911-6.502-6.502c0-3.591,2.911-6.502,6.502-6.502
						C184.76,143.419,187.671,146.33,187.671,149.921z"/>
				</g>
				
					<linearGradient id="SVGID_00000119827042604255712290000012612682296816517006_" gradientUnits="userSpaceOnUse" x1="162.5766" y1="154.6406" x2="171.9175" y2="92.0741" gradientTransform="matrix(0.9937 0.1125 -0.1125 0.9937 18.9767 -17.003)">
					<stop  offset="6.800000e-07" style="stop-color:#FFFFFF"/>
					<stop  offset="1" style="stop-color:#9569FA"/>
				</linearGradient>
				<path style="fill:url(#SVGID_00000119827042604255712290000012612682296816517006_);" d="M156.77,139.86
					c-2.864,1.766-6.512,5.815-3.366,12.989c3.146,7.174,12.033,5.053,13.24,0.85c5.575,4.906,11.06,2.289,10.498-3.716
					c-0.562-6.006-7.42-8.49-9.021-8.837C166.52,140.797,156.77,139.86,156.77,139.86z"/>
				<path style="fill:#350055;" d="M148.972,119.046l-2.427-4.924c-1.35-2.738-0.627-6.046,1.741-7.972l0,0l0,0
					c-2.215-5.818,1.128-12.255,7.153-13.818c3.095-0.803,6.048-1.665,7.712-2.398c4.613-2.031,8.829-5.592,11.497-3.29
					c2.668,2.302-1.169,5.897-1.169,5.897s3.303-0.758,5.356-2.89c2.053-2.132,5.174-0.945,5.394,2.046
					c0.22,2.991-3.345,6.446-3.345,6.446l2.279-0.316c1.611-0.224,3.084,0.938,3.243,2.557l0,0c0.093,0.948-0.292,1.881-1.027,2.488
					l-4.334,3.577l-23.883,16.15l-3.964,0.116L148.972,119.046z"/>
				
					<linearGradient id="SVGID_00000132080207405465739040000002014313973108561841_" gradientUnits="userSpaceOnUse" x1="159.1449" y1="144.4203" x2="242.4339" y2="33.6329">
					<stop  offset="4.100000e-07" style="stop-color:#F0C9CF"/>
					<stop  offset="1" style="stop-color:#D683A7"/>
				</linearGradient>
				<path style="fill:url(#SVGID_00000132080207405465739040000002014313973108561841_);" d="M173.063,144.539
					c0.021,0.859,0.062,1.377,0.062,1.377s-0.114,0.518-0.363,1.284c-0.714,2.123-2.527,6.141-6.161,6.244
					c-9.785,0.28-11.804-9.899-11.804-9.899s0.135-0.87,0.3-2.226c0-0.01,0-0.01,0-0.01c0.425-3.541,1.087-10.417,0.217-13.927
					l6.627,1.263l12.861,2.475C172.856,133.718,172.939,141.381,173.063,144.539z"/>
				<path style="fill:#D683A7;" d="M173.059,144.541c-8.56-1.511-12.483-8.129-16.805-14.581l5.69-1.316l12.856,2.473
					C172.857,133.722,172.936,141.385,173.059,144.541z"/>
				
					<linearGradient id="SVGID_00000033335019534257426480000010039254638299282070_" gradientUnits="userSpaceOnUse" x1="162.8534" y1="128.4523" x2="168.317" y2="67.1193" gradientTransform="matrix(0.9996 -0.0293 0.0293 0.9996 -3.074 4.7498)">
					<stop  offset="4.100000e-07" style="stop-color:#F0C9CF"/>
					<stop  offset="1" style="stop-color:#D683A7"/>
				</linearGradient>
				<path style="fill:url(#SVGID_00000033335019534257426480000010039254638299282070_);" d="M154.196,110.76
					c0,0-0.2,6.275,0.109,9.568c0.063,0.668-0.785,0.999-1.197,0.469c-0.773-0.995-1.247-2.431-1.247-2.431
					s-1.928-1.861-3.865-0.262c-1.937,1.6,0.93,9.186,5.154,6.66c0,0,5.501,13.24,17.217,12.897
					c11.716-0.343,10.027-15.854,9.764-20.343c-0.264-4.489,1.505-7.318,0.916-10.871C170.62,111.646,154.196,110.76,154.196,110.76
					z"/>
				<path style="fill:none;stroke:#C85E8B;stroke-width:0.5177;stroke-linecap:round;stroke-miterlimit:9;" d="M172.011,118.738
					l2.578,5.549c0.458,0.985,0.112,2.156-0.806,2.736l-1.312,0.828"/>
				<path style="fill:none;stroke:#C85E8B;stroke-width:0.5177;stroke-linecap:round;stroke-miterlimit:9;" d="M167.369,131.203
					c0,0,2.264,1.686,4.538,0.297"/>
				<path style="fill:#350055;" d="M167.758,120.789c0.018,0.608-0.461,1.116-1.069,1.133c-0.608,0.018-1.116-0.461-1.133-1.069
					c-0.018-0.608,0.461-1.116,1.069-1.133C167.233,119.702,167.74,120.18,167.758,120.789z"/>
				<path style="fill:#350055;" d="M178.365,119.817c0.018,0.608-0.461,1.116-1.069,1.133c-0.608,0.018-1.115-0.461-1.133-1.069
					c-0.018-0.608,0.461-1.116,1.069-1.133C177.839,118.73,178.347,119.209,178.365,119.817z"/>
				
					<path style="fill:none;stroke:#350055;stroke-width:0.5177;stroke-linecap:round;stroke-linejoin:round;stroke-miterlimit:10;" d="
					M163.512,117.794c0,0,2.448-1.097,5.035-0.809"/>
				
					<path style="fill:none;stroke:#350055;stroke-width:0.5177;stroke-linecap:round;stroke-linejoin:round;stroke-miterlimit:10;" d="
					M179.275,116.245c0,0-2.622-0.562-5.093,0.26"/>
				<path style="fill:none;stroke:#C85E8B;stroke-width:0.5177;stroke-linecap:round;stroke-miterlimit:9;" d="M149.526,119.896
					c1.359-0.245,2.029,2.293,1.953,3.485"/>
				
					<line style="fill:none;stroke:#C85E8B;stroke-width:0.5177;stroke-linecap:round;stroke-miterlimit:9;" x1="208.547" y1="195.59" x2="200.527" y2="206.341"/>
				
					<path style="fill:none;stroke:#350055;stroke-width:0.5177;stroke-linecap:round;stroke-linejoin:round;stroke-miterlimit:10;" d="
					M195.108,195.898c0,0-1.454-22.208,0-29.082"/>
				<path style="fill:none;stroke:#C85E8B;stroke-width:0.5177;stroke-linecap:round;stroke-miterlimit:9;" d="M227.031,162.829
					c5.354,0.463,7.425,4.472,7.425,4.472"/>
				<path style="fill:none;stroke:#C85E8B;stroke-width:0.5177;stroke-linecap:round;stroke-miterlimit:9;" d="M229.807,158.07
					c2.666-0.11,6.764,2.49,7.248,5.574"/>
				
					<path style="fill:none;stroke:#350055;stroke-width:0.5177;stroke-linecap:round;stroke-linejoin:round;stroke-miterlimit:10;" d="
					M133.243,205.68c0,0,9.65-28.817,11.236-33.576"/>
				
					<linearGradient id="SVGID_00000083806918140013968180000005029079641828378775_" gradientUnits="userSpaceOnUse" x1="127.0488" y1="226.5263" x2="152.0765" y2="145.098">
					<stop  offset="4.100000e-07" style="stop-color:#F0C9CF"/>
					<stop  offset="1" style="stop-color:#D683A7"/>
				</linearGradient>
				<path style="fill:url(#SVGID_00000083806918140013968180000005029079641828378775_);" d="M143.293,245.995
					c-4.494,10.707-12.302,11.639-12.302,11.639l-2.195-2.537l-17.717-20.482c-3.5-4.038-4.753-9.557-3.355-14.714l5.374-19.798
					l1.222-4.484c2.371,3.883,7.652,9.63,18.204,10.034l-0.797,2.185l-4.701,12.913l4.173,6.472l9.785,15.191l1.812,2.806
					L143.293,245.995z"/>
				<path style="fill:#D683A7;" d="M143.264,245.995c-4.494,10.707-12.301,11.639-12.301,11.639l-2.195-2.537
					c5.24-0.59,11.566-5.809,14-9.878L143.264,245.995z"/>
				
					<line style="fill:none;stroke:#C85E8B;stroke-width:0.5177;stroke-linecap:round;stroke-miterlimit:9;" x1="127.025" y1="220.751" x2="120.817" y2="221.807"/>
				<path style="fill:#D683A7;" d="M132.524,205.653l-0.797,2.185c-10.075,0.59-15.853-4.318-18.628-7.735l1.222-4.484
					C116.691,199.502,121.972,205.249,132.524,205.653z"/>
				
					<line style="fill:none;stroke:#350055;stroke-width:0.5177;stroke-linecap:round;stroke-linejoin:round;stroke-miterlimit:10;" x1="171.446" y1="274.815" x2="167.301" y2="320.42"/>
				
					<linearGradient id="SVGID_00000173155352808597453610000016834834549328171947_" gradientUnits="userSpaceOnUse" x1="155.3929" y1="429.7448" x2="349.4467" y2="495.8394">
					<stop  offset="0" style="stop-color:#303563"/>
					<stop  offset="1" style="stop-color:#5561A0"/>
				</linearGradient>
				<path style="fill:url(#SVGID_00000173155352808597453610000016834834549328171947_);" d="M120.714,426.735l14.863-11.652
					c1.784-1.399,4.27-1.479,6.14-0.198l8.462,5.796c0.822,0.563,1.795,0.864,2.792,0.864h3.934l1.498,6.94h-37.085
					C120.388,428.485,119.982,427.309,120.714,426.735z"/>
				
					<line style="fill:none;stroke:#CAB4FB;stroke-width:1.0355;stroke-linecap:round;stroke-linejoin:round;stroke-miterlimit:10;" x1="129.355" y1="418.108" x2="140.249" y2="418.108"/>
				
					<line style="fill:none;stroke:#CAB4FB;stroke-width:1.0355;stroke-linecap:round;stroke-linejoin:round;stroke-miterlimit:10;" x1="125.918" y1="421.545" x2="136.812" y2="421.545"/>
				
					<linearGradient id="SVGID_00000056398792164942509390000004568600517552696192_" gradientUnits="userSpaceOnUse" x1="237.1233" y1="426.3319" x2="382.355" y2="485.5526">
					<stop  offset="0" style="stop-color:#303563"/>
					<stop  offset="1" style="stop-color:#5561A0"/>
				</linearGradient>
				<path style="fill:url(#SVGID_00000056398792164942509390000004568600517552696192_);" d="M215.068,428.485v-9.848h13.79
					c1.104,0,2.11-0.635,2.584-1.633l0.652-1.372c0.61-1.282,2.178-1.78,3.416-1.084l19.768,11.124
					c1.348,0.758,0.809,2.813-0.737,2.813H215.068z"/>
				
					<line style="fill:none;stroke:#CAB4FB;stroke-width:1.0355;stroke-linecap:round;stroke-linejoin:round;stroke-miterlimit:10;" x1="243.048" y1="417.888" x2="237.937" y2="417.888"/>
				
					<line style="fill:none;stroke:#CAB4FB;stroke-width:1.0355;stroke-linecap:round;stroke-linejoin:round;stroke-miterlimit:10;" x1="246.815" y1="420.091" x2="241.704" y2="420.091"/>
				
					<path style="fill:none;stroke:#350055;stroke-width:0.5177;stroke-linecap:round;stroke-linejoin:round;stroke-miterlimit:10;" d="
					M152.192,230.223c0,0,21.54-0.88,28.976-15.863"/>
				
					<line style="fill:none;stroke:#350055;stroke-width:0.5177;stroke-linecap:round;stroke-linejoin:round;stroke-miterlimit:10;" x1="135.27" y1="255.942" x2="143.293" y2="402.25"/>
				
					<line style="fill:none;stroke:#350055;stroke-width:0.5177;stroke-linecap:round;stroke-linejoin:round;stroke-miterlimit:10;" x1="190.831" y1="241.703" x2="225.181" y2="397.135"/>
				<g>
					<path style="fill:none;stroke:#6E38EA;stroke-width:0.7766;stroke-miterlimit:10;" d="M171.28,120.424
						c0,2.899-2.35,5.25-5.25,5.25c-2.899,0-5.25-2.35-5.25-5.25c0-2.899,2.35-5.25,5.25-5.25
						C168.929,115.174,171.28,117.525,171.28,120.424z"/>
					<path style="fill:none;stroke:#6E38EA;stroke-width:0.7766;stroke-miterlimit:10;" d="M183.9,118.738
						c0,2.899-2.35,5.25-5.25,5.25c-2.899,0-5.25-2.35-5.25-5.25c0-2.899,2.35-5.25,5.25-5.25
						C181.55,113.488,183.9,115.838,183.9,118.738z"/>
					
						<line style="fill:none;stroke:#6E38EA;stroke-width:0.7766;stroke-miterlimit:10;" x1="171.28" y1="118.738" x2="173.427" y2="118.212"/>
					
						<line style="fill:none;stroke:#6E38EA;stroke-width:0.7766;stroke-miterlimit:10;" x1="160.956" y1="119.096" x2="152.851" y2="119.096"/>
				</g>
			</g>
			<g>
				<g>
					
						<linearGradient id="SVGID_00000180342218970221781960000007801627977870687892_" gradientUnits="userSpaceOnUse" x1="373.6294" y1="438.0666" x2="331.1652" y2="37.1571">
						<stop  offset="4.100000e-07" style="stop-color:#F0C9CF"/>
						<stop  offset="1" style="stop-color:#D683A7"/>
					</linearGradient>
					<polygon style="fill:url(#SVGID_00000180342218970221781960000007801627977870687892_);" points="343.88,337.753 
						373.982,420.4 388.699,420.4 390.462,416.434 364.766,325.652 					"/>
					
						<linearGradient id="SVGID_00000110430957611389027380000003304272076670071228_" gradientUnits="userSpaceOnUse" x1="360.1258" y1="413.0626" x2="577.445" y2="493.9623">
						<stop  offset="0" style="stop-color:#8F9DC1"/>
						<stop  offset="1" style="stop-color:#5561A0"/>
					</linearGradient>
					<path style="fill:url(#SVGID_00000110430957611389027380000003304272076670071228_);" d="M372.572,428.485v-9.848h13.791
						c1.104,0,2.11-0.635,2.584-1.633l0.652-1.372c0.61-1.282,2.178-1.78,3.416-1.084l19.768,11.124
						c1.348,0.758,0.809,2.813-0.737,2.813H372.572z"/>
					
						<line style="fill:none;stroke:#350055;stroke-width:0.7766;stroke-linecap:round;stroke-linejoin:round;stroke-miterlimit:10;" x1="400.552" y1="417.888" x2="395.441" y2="417.888"/>
					
						<line style="fill:none;stroke:#350055;stroke-width:0.7766;stroke-linecap:round;stroke-linejoin:round;stroke-miterlimit:10;" x1="404.32" y1="420.091" x2="399.208" y2="420.091"/>
				</g>
				<g>
					
						<linearGradient id="SVGID_00000104666248097480915470000013205901217124107137_" gradientUnits="userSpaceOnUse" x1="297.3789" y1="418.7508" x2="390.4553" y2="107.2295">
						<stop  offset="4.100000e-07" style="stop-color:#F0C9CF"/>
						<stop  offset="1" style="stop-color:#D683A7"/>
					</linearGradient>
					<polyline style="fill:url(#SVGID_00000104666248097480915470000013205901217124107137_);" points="302.997,332.672 
						299.955,417.403 309.737,422.779 316.434,422.25 325.425,331.703 					"/>
					
						<linearGradient id="SVGID_00000096031716621743390830000006971623703229742236_" gradientUnits="userSpaceOnUse" x1="348.9897" y1="442.9774" x2="566.3088" y2="523.8771">
						<stop  offset="0" style="stop-color:#8F9DC1"/>
						<stop  offset="1" style="stop-color:#5561A0"/>
					</linearGradient>
					<path style="fill:url(#SVGID_00000096031716621743390830000006971623703229742236_);" d="M280.86,426.735l14.863-11.652
						c1.784-1.399,4.27-1.479,6.14-0.198l8.462,5.796c0.822,0.563,1.795,0.864,2.792,0.864h3.934l1.498,6.94h-37.085
						C280.534,428.485,280.128,427.309,280.86,426.735z"/>
					
						<line style="fill:none;stroke:#350055;stroke-width:0.7766;stroke-linecap:round;stroke-linejoin:round;stroke-miterlimit:10;" x1="289.502" y1="418.108" x2="300.395" y2="418.108"/>
					
						<line style="fill:none;stroke:#350055;stroke-width:0.7766;stroke-linecap:round;stroke-linejoin:round;stroke-miterlimit:10;" x1="286.065" y1="421.545" x2="296.958" y2="421.545"/>
				</g>
				
					<linearGradient id="SVGID_00000103964927548139429990000007005120897285991322_" gradientUnits="userSpaceOnUse" x1="287.9885" y1="247.3457" x2="336.6341" y2="74.442">
					<stop  offset="4.100000e-07" style="stop-color:#F0C9CF"/>
					<stop  offset="1" style="stop-color:#D683A7"/>
				</linearGradient>
				<path style="fill:url(#SVGID_00000103964927548139429990000007005120897285991322_);" d="M288.755,174.704l-7.409,28.868
					c-2.095,8.164-0.657,16.833,3.962,23.883l7.819,11.934c0,0-2.2,3.371-4.372,6.081c-2.172,2.71-1.974,4.494,0.802,3.966
					c2.776-0.529,4.548-2.974,4.548-2.974s-1.288,15.312,4.176,19.013c5.464,3.701,10.386-22.56,9.775-25.556
					c-0.61-2.996-2.901-28.993-2.901-28.993l-2.732-28.288L288.755,174.704z"/>
				<path style="fill:#350055;" d="M319.873,97.946c-7.05-2.556-12.426,10.928-9.87,18.859c2.556,7.931,6.433,10.663,5.993,16.48
					c-0.441,5.816-8.196,11.016-7.931,14.805c0.264,3.789,9.341,4.142,21.238,0c11.897-4.142,36.61,4.098,40.425,14.739
					c0,0,2.845-11.214-4.029-17.89c-6.874-6.676-10.84-9.848-8.46-20.952c2.379-11.104-2.533-30.007-18.054-32.386
					C323.662,89.222,319.873,97.946,319.873,97.946z"/>
				
					<linearGradient id="SVGID_00000164492053156500309040000015463134111484622749_" gradientUnits="userSpaceOnUse" x1="311.5201" y1="167.4401" x2="402.7306" y2="589.3876">
					<stop  offset="2.700000e-07" style="stop-color:#96CEFC"/>
					<stop  offset="1" style="stop-color:#263DEA"/>
				</linearGradient>
				<path style="fill:url(#SVGID_00000164492053156500309040000015463134111484622749_);" d="M301.276,225.628
					c3.531-19.726-1.408-34.005-1.584-42.993l-11.98-7.404l6.886-15.46c3.438-7.714,10.22-13.43,18.4-15.511l1.823-0.466
					l3.904-0.994l30.143-0.901l0.663,0.28l5.964,2.506c6.834,2.858,11.918,8.791,13.699,15.988l4.432,17.914l-22.19,12.685
					c0,0,3.956,29.791,12.239,54.29c8.284,24.499,17.448,100.11,17.448,100.11h-90.77
					C290.352,345.671,297.755,245.354,301.276,225.628z"/>
				<path style="opacity:0.25;fill:#FFFFFF;" d="M367.696,167.541v-11.09c-0.744-1.626-1.666-3.155-2.748-4.559h-12.901v-8.739
					l-2.573-1.081l-0.159-0.067v9.887h-12.917v-9.729l-2.732,0.082v9.647h-12.917v-9.261l-2.081,0.062l-0.651,0.166v9.033H305.1
					v-4.37c-0.951,0.596-1.863,1.247-2.732,1.952v2.418h-2.627c-0.814,0.857-1.568,1.772-2.269,2.732h4.897v12.917h-11.335
					l-1.217,2.732h12.552v12.917h-2.7c0.037,0.867,0.105,1.772,0.21,2.732h2.49v12.917h-0.693c0.109,0.889,0.21,1.8,0.304,2.732
					h0.389v5.176c0.162,3.264,0.157,6.754-0.117,10.473h0.117v13.158h-1.885c-0.116,0.856-0.233,1.764-0.354,2.732h2.239v12.917
					h-3.682c-0.092,0.892-0.184,1.807-0.277,2.732h3.959v12.917h-5.202c-0.084,0.904-0.168,1.814-0.251,2.732h5.453v12.917h-6.604
					c-0.079,0.909-0.158,1.82-0.236,2.732h6.84v12.917h-7.933c-0.076,0.914-0.151,1.824-0.226,2.732h8.159v13.158h-9.231
					c-0.074,0.92-0.147,1.831-0.219,2.732h9.449v12.917h-10.467c-0.073,0.933-0.144,1.845-0.212,2.732h10.68v12.917H290.7
					c-0.08,1.057-0.148,1.968-0.205,2.732h11.873v2.671h2.732v-2.671h12.917v2.671h2.732v-2.671h12.917v2.671h2.732v-2.671h12.917
					v2.671h2.732v-2.671h12.917v2.671h2.732v-2.671h13.039c-0.096-0.763-0.212-1.681-0.346-2.732h-12.693v-12.917h10.987
					c-0.121-0.887-0.246-1.801-0.374-2.732h-10.613v-12.917h8.779c-0.132-0.903-0.266-1.813-0.402-2.732h-8.377v-13.158h6.357
					c-0.145-0.91-0.291-1.82-0.439-2.732h-5.918v-12.917h3.733c-0.162-0.915-0.326-1.827-0.49-2.732h-3.243v-12.917h0.737
					c-0.193-0.925-0.387-1.837-0.582-2.732h-0.156v-0.71c-0.906-4.124-1.821-7.882-2.732-11.117v11.827h-12.917v-12.917h12.604
					c-0.282-0.965-0.564-1.877-0.845-2.732h-11.759V233.11h7.841c-0.248-0.912-0.489-1.823-0.726-2.732h-7.115V217.22h3.997
					c-0.199-0.925-0.391-1.834-0.577-2.732h-3.42v-12.917h0.967c-0.166-0.963-0.321-1.881-0.462-2.732h-0.505v-3.148
					c-0.445-2.854-0.668-4.527-0.668-4.527l0.668-0.382v-4.86h8.503l7.146-4.085v-11.564h3.843l-0.676-2.732H367.696z
					 M318.017,340.162H305.1v-12.917h12.917V340.162z M318.017,324.513H305.1v-12.917h12.917V324.513z M318.017,308.864H305.1
					v-13.158h12.917V308.864z M318.017,292.974H305.1v-12.917h12.917V292.974z M318.017,277.325H305.1v-12.917h12.917V277.325z
					 M318.017,261.676H305.1v-12.917h12.917V261.676z M318.017,246.027H305.1V233.11h12.917V246.027z M318.017,230.378H305.1V217.22
					h12.917V230.378z M318.017,214.488H305.1v-12.917h12.917V214.488z M318.017,198.839H305.1v-12.917h12.917V198.839z
					 M318.017,183.19H305.1v-12.917h12.917V183.19z M318.017,167.541H305.1v-12.917h12.917V167.541z M333.666,340.162h-12.917
					v-12.917h12.917V340.162z M333.666,324.513h-12.917v-12.917h12.917V324.513z M333.666,308.864h-12.917v-13.158h12.917V308.864z
					 M333.666,292.974h-12.917v-12.917h12.917V292.974z M333.666,277.325h-12.917v-12.917h12.917V277.325z M333.666,261.676h-12.917
					v-12.917h12.917V261.676z M333.666,246.027h-12.917V233.11h12.917V246.027z M333.666,230.378h-12.917V217.22h12.917V230.378z
					 M333.666,214.488h-12.917v-12.917h12.917V214.488z M333.666,198.839h-12.917v-12.917h12.917V198.839z M333.666,183.19h-12.917
					v-12.917h12.917V183.19z M333.666,167.541h-12.917v-12.917h12.917V167.541z M349.315,340.162h-12.917v-12.917h12.917V340.162z
					 M349.315,324.513h-12.917v-12.917h12.917V324.513z M349.315,308.864h-12.917v-13.158h12.917V308.864z M349.315,292.974h-12.917
					v-12.917h12.917V292.974z M349.315,277.325h-12.917v-12.917h12.917V277.325z M349.315,261.676h-12.917v-12.917h12.917V261.676z
					 M349.315,246.027h-12.917V233.11h12.917V246.027z M349.315,230.378h-12.917V217.22h12.917V230.378z M349.315,214.488h-12.917
					v-12.917h12.917V214.488z M349.315,198.839h-12.917v-12.917h12.917V198.839z M349.315,183.19h-12.917v-12.917h12.917V183.19z
					 M349.315,167.541h-12.917v-12.917h12.917V167.541z M352.047,264.408h12.917v12.917h-12.917V264.408z M352.047,280.057h12.917
					v12.917h-12.917V280.057z M352.047,295.706h12.917v13.158h-12.917V295.706z M352.047,311.596h12.917v12.917h-12.917V311.596z
					 M352.047,327.245h12.917v12.917h-12.917V327.245z M364.964,183.19h-12.917v-12.917h12.917V183.19z M364.964,167.541h-12.917
					v-12.917h12.917V167.541z"/>
				
					<path style="fill:none;stroke:#350055;stroke-width:0.5177;stroke-linecap:round;stroke-linejoin:round;stroke-miterlimit:10;" d="
					M302.645,184.663c0.353-8.284,4.847-12.338,5.464-15.863"/>
				
					<path style="fill:none;stroke:#350055;stroke-width:0.5177;stroke-linecap:round;stroke-linejoin:round;stroke-miterlimit:10;" d="
					M311.236,194.18c14.541,8.02,28.553,6.312,28.553,6.312"/>
				<path style="fill:#FFFFFF;" d="M334.401,165.062c-6.058,1.957-8.978-7.165-8.978-7.165s-8.108,6.14-10.22,3.894
					c-1.76-1.864-3.521-11.318-0.383-17.997l3.904-0.994l30.143-0.901l0.663,0.28C350.348,152.699,340.086,163.23,334.401,165.062z"
					/>
				
					<linearGradient id="SVGID_00000156569807131239236130000009843904274958106774_" gradientUnits="userSpaceOnUse" x1="338.4003" y1="136.9917" x2="445.3752" y2="20.9219">
					<stop  offset="4.100000e-07" style="stop-color:#F0C9CF"/>
					<stop  offset="1" style="stop-color:#D683A7"/>
				</linearGradient>
				<path style="fill:url(#SVGID_00000156569807131239236130000009843904274958106774_);" d="M348.867,141.898
					c0,0-8.108,16.164-21.238,16.164c-9.848,0-9.93-8.594-9.361-12.881c0.186-1.429,0.456-2.382,0.456-2.382l7.404-2.64
					l-1.139-6.782l2.257-1.232l15.978-8.729c-2.112,3.169,0.797,17.003,0.797,17.003l2.879,0.88L348.867,141.898z"/>
				<path style="fill:#D683A7;" d="M341.463,129.224c0,0-1.145,9.734-15.336,10.935l-1.139-6.782l2.257-1.232
					C333.076,130.933,341.463,129.224,341.463,129.224z"/>
				
					<linearGradient id="SVGID_00000002344819672977384320000008460800334708778400_" gradientUnits="userSpaceOnUse" x1="333.5479" y1="115.7099" x2="420.6164" y2="21.2388">
					<stop  offset="4.100000e-07" style="stop-color:#F0C9CF"/>
					<stop  offset="1" style="stop-color:#D683A7"/>
				</linearGradient>
				<path style="fill:url(#SVGID_00000002344819672977384320000008460800334708778400_);" d="M321.525,102.815
					c-0.925,3.106-4.164,5.75-4.164,5.75s1.3,3.9,1.256,6.764c-0.044,2.864-1.537,8.677,1.146,15.246s17.647,10.861,24.785-7.248
					c0,0,1.256,2.644,4.23,1.421c2.974-1.223,3.999-8.791,0.165-8.592c-3.833,0.198-4.362,4.032-4.891,4.627
					c-0.892-2.644-0.496-5.816-0.496-5.816S328.994,115.373,321.525,102.815z"/>
				<path style="fill:none;stroke:#C85E8B;stroke-width:0.5177;stroke-linecap:round;stroke-miterlimit:9;" d="M349.241,118.931
					c-1.619-0.132-2.776,2.049-2.214,3.371"/>
				<path style="fill:none;stroke:#C85E8B;stroke-width:0.5177;stroke-linecap:round;stroke-miterlimit:9;" d="M327.011,117.818
					l-2.083,4.695c-0.385,0.869-0.007,1.886,0.852,2.293l1.716,0.812"/>
				<g>
					<path style="fill:#350055;" d="M331.25,119.353c0.026,0.608,0.539,1.08,1.147,1.054c0.608-0.026,1.08-0.539,1.054-1.147
						c-0.026-0.608-0.539-1.08-1.147-1.054C331.697,118.232,331.225,118.745,331.25,119.353z"/>
					<path style="fill:#350055;" d="M320.602,119.141c0.026,0.608,0.539,1.08,1.147,1.054c0.608-0.026,1.08-0.539,1.054-1.147
						c-0.026-0.608-0.539-1.08-1.147-1.054C321.048,118.02,320.576,118.533,320.602,119.141z"/>
					
						<path style="fill:none;stroke:#350055;stroke-width:0.5177;stroke-linecap:round;stroke-linejoin:round;stroke-miterlimit:10;" d="
						M335.271,116.063c0,0-2.52-0.919-5.08-0.447"/>
					
						<path style="fill:none;stroke:#350055;stroke-width:0.5177;stroke-linecap:round;stroke-linejoin:round;stroke-miterlimit:10;" d="
						M319.439,115.643c0,0,2.576-0.747,5.098-0.104"/>
				</g>
				<path style="fill:none;stroke:#C85E8B;stroke-width:0.5177;stroke-linecap:round;stroke-miterlimit:9;" d="M327.892,129.506
					c0,0,2.842,1.421,4.459-0.958"/>
				
					<line style="fill:none;stroke:#350055;stroke-width:0.5177;stroke-linecap:round;stroke-linejoin:round;stroke-miterlimit:10;" x1="351.433" y1="191.272" x2="348.867" y2="181.357"/>
				<g>
					<path style="opacity:0.45;fill:#FFFFFF;" d="M330.759,220.915h-58.78c-2.202,0-4.137-1.785-4.322-3.988l-3.037-36.176
						c-0.185-2.202,1.451-3.988,3.653-3.988h58.78c2.202,0,4.138,1.785,4.323,3.988l3.037,36.176
						C334.597,219.129,332.962,220.915,330.759,220.915z"/>
					<path style="fill:#350055;" d="M325.349,228.813h-58.78c-2.202,0-4.137-1.785-4.322-3.988l-3.037-36.176
						c-0.185-2.202,1.451-3.988,3.653-3.988h58.78c2.202,0,4.138,1.785,4.323,3.988l3.037,36.176
						C329.187,227.028,327.551,228.813,325.349,228.813z"/>
					<path style="fill:#4A1379;" d="M291.408,201.526c-4.11-0.269-3.749,10.457,3.233,10.428c6.982-0.029,4.834-5.669,3.409-6.374
						c-1.425-0.705-3.055,0.881-4.249-0.22C292.607,204.258,294.776,201.747,291.408,201.526z"/>
					<path style="fill:#4A1379;" d="M292.491,200.492c-0.32-1.454,1.144-2.512,1.144-2.512S295.223,199.963,292.491,200.492z"/>
					<path style="fill:#804ABB;" d="M265.119,189.884c0.056,0.663-0.437,1.201-1.1,1.201c-0.663,0-1.246-0.538-1.302-1.201
						c-0.056-0.663,0.437-1.201,1.1-1.201C264.48,188.683,265.063,189.221,265.119,189.884z"/>
					<path style="fill:#804ABB;" d="M267.195,189.884c0.021,0.256-0.168,0.463-0.424,0.463c-0.255,0-0.48-0.207-0.501-0.463
						c-0.021-0.256,0.168-0.463,0.424-0.463C266.949,189.421,267.174,189.628,267.195,189.884z"/>
				</g>
				
					<linearGradient id="SVGID_00000173841740298727715200000002526519704720715429_" gradientUnits="userSpaceOnUse" x1="348.0458" y1="210.3033" x2="401.274" y2="124.2921">
					<stop  offset="4.100000e-07" style="stop-color:#F0C9CF"/>
					<stop  offset="1" style="stop-color:#D683A7"/>
				</linearGradient>
				<path style="fill:url(#SVGID_00000173841740298727715200000002526519704720715429_);" d="M351.433,191.272l5.673,15.003
					l-21.459-1.168c0,0-2.556-2.027-4.23-3.833c-1.674-1.807-2.864-4.891-4.318-4.362c-1.454,0.529-1.718,3.173-1.322,5.288
					c0.397,2.115,1.718,4.076,1.718,4.076s-4.142,1.035-8.592,0.815c-4.45-0.22-8.768-1.586-9.341,0.22
					c-0.573,1.807,2.379,3.613,2.379,3.613s-2.512,1.762-1.146,3.613c1.366,1.851,3.789,1.851,3.789,1.851s-2.335,1.542,3.128,3.569
					c5.464,2.027,15.819-1.013,15.819-1.013l28.206,10.915c5.27,2.039,11.237,0.985,15.489-2.737h0
					c4.284-3.75,6.112-9.581,4.735-15.105l-8.333-33.435L351.433,191.272z"/>
				
					<line style="fill:none;stroke:#C85E8B;stroke-width:0.5177;stroke-linecap:round;stroke-miterlimit:9;" x1="357.106" y1="206.275" x2="370.311" y2="206.341"/>
				<path style="fill:none;stroke:#C85E8B;stroke-width:0.5177;stroke-linecap:round;stroke-miterlimit:9;" d="M311.941,210.924
					c7.006,1.939,13.483,0.793,13.483,0.793"/>
				<path style="fill:none;stroke:#C85E8B;stroke-width:0.5177;stroke-linecap:round;stroke-miterlimit:9;" d="M314.585,216.388
					c7.028,1.851,11.522,0.397,11.522,0.397"/>
				<path style="fill:#350055;" d="M335.765,225.014l-0.238-0.042c-0.743-0.131-1.24-0.839-1.109-1.582l3.191-18.162
					c0.131-0.743,0.839-1.24,1.582-1.109l0.238,0.042c0.743,0.131,1.24,0.839,1.109,1.582l-3.191,18.162
					C337.217,224.648,336.508,225.144,335.765,225.014z"/>
				<path style="fill:#D683A7;" d="M348.867,141.898c0,0-8.108,16.164-21.238,16.164c-9.848,0-9.93-8.594-9.361-12.881
					c-0.217,3.779,0.601,9.93,7.87,11.328c9.185,1.76,18.639-9.723,20.761-15.211L348.867,141.898z"/>
			</g>
			
				<path style="fill:none;stroke:#350055;stroke-width:0.5177;stroke-linecap:round;stroke-linejoin:round;stroke-miterlimit:10;" d="
				M314.585,273.229c13.871,25.116,35.565,41.772,35.565,41.772"/>
		</g>
	</g>
</g>
</svg>
