<svg width="1272" height="894" viewBox="0 0 1272 894" fill="none" xmlns="http://www.w3.org/2000/svg">
<mask id="mask0_848_1121" style="mask-type:luminance" maskUnits="userSpaceOnUse" x="0" y="292" width="1272" height="530">
<path d="M0 292.05H1271.71V821.096H0V292.05Z" fill="white"/>
</mask>
<g mask="url(#mask0_848_1121)">
<g opacity="0.800003">
<path fill-rule="evenodd" clip-rule="evenodd" d="M436.839 672.285C437.716 676.313 438.379 679.358 439.212 683.189C443.231 678.4 441.128 675.632 436.839 672.285ZM309.596 488.692C304.52 488.828 303.507 490.817 305.058 498.644C306.856 494.7 308.182 491.793 309.596 488.692ZM449.004 621.883C445.698 627.085 446.251 631.4 450.33 634.1C449.89 630.037 449.504 626.483 449.004 621.883ZM200.227 589.032C194.883 590.302 194.23 594.018 194.391 598.117C194.808 598.32 195.226 598.521 195.642 598.724C197.17 595.492 198.699 592.262 200.227 589.032ZM902.906 633.34C902.587 633.345 902.266 633.348 901.947 633.353C902.222 637.53 902.502 641.709 902.771 645.886C902.983 649.202 903.182 652.517 903.416 656.316C904.191 654.48 905.86 652.452 905.683 650.597C905.132 644.809 903.883 639.088 902.906 633.34ZM866.039 737.238C871.691 732.72 872.035 725.142 867.568 722.269C867.086 726.998 866.611 731.642 866.039 737.238ZM898.792 630.061C899.922 621.218 900.294 612.541 897.707 604.191C897.247 604.24 896.787 604.286 896.326 604.336C897.147 612.912 897.971 621.484 898.792 630.061ZM894.738 672.334C894.479 672.384 894.219 672.436 893.962 672.488V697.629C894.219 697.608 894.479 697.591 894.738 697.572V672.334ZM847.316 508.814C846.016 517.366 846.118 526.073 848.634 534.63C849.423 530.74 849.892 526.877 850.372 523.016C850.503 521.972 851.007 520.838 850.752 519.906C849.732 516.174 848.482 512.506 847.316 508.814ZM191.328 595.789C183.634 605.032 181.526 613.513 184.34 620.51C185.938 616.56 187.874 612.734 189.011 608.688C190.187 604.5 190.588 600.096 191.328 595.789ZM178.142 643.092C178.558 643.09 178.974 643.085 179.388 643.082V613.893C175.906 614.265 174.214 615.89 174.683 619.25C175.796 627.204 176.984 635.146 178.142 643.092ZM171.792 618.646C171.071 618.69 170.348 618.734 169.626 618.778C171.167 634.074 172.707 649.37 174.248 664.668C175.052 664.585 175.856 664.501 176.66 664.416C175.038 649.16 173.415 633.902 171.792 618.646ZM120.55 690.351V759.665C121.423 759.64 122.296 759.616 123.171 759.592C123.315 736.528 122.406 713.488 120.55 690.351ZM483.59 316.886L481.806 317C483.496 331.289 485.188 345.58 486.879 359.872C491.759 344.858 485.426 331.128 483.59 316.886ZM295.606 494.465C292.035 497.318 291.43 509.436 294.475 523.732C296.83 513.13 304.284 503.614 300.095 491.726C299.82 496.13 299.547 500.536 299.272 504.94C298.76 505.005 298.25 505.07 297.738 505.137C297.024 501.564 296.311 497.992 295.606 494.465ZM384.999 480.646C385.588 480.638 386.179 480.629 386.768 480.621C388.448 461.142 388.348 441.654 386.492 421.992C384.983 423.685 384.135 425.554 384.164 427.408C384.324 437.601 384.783 447.788 384.971 457.982C385.112 465.534 384.999 473.092 384.999 480.646ZM898.626 519.002C899.222 519.12 899.818 519.237 900.415 519.357C901.727 516.224 904.058 513.124 904.158 509.952C904.434 501.245 903.8 492.508 903.468 483.784C903.399 481.962 903.087 480.153 902.886 478.341C902.334 478.184 901.78 478.028 901.227 477.873C900.36 479.594 898.772 481.302 898.742 483.04C898.522 495.024 898.626 507.014 898.626 519.002ZM889.406 602.415C889.97 611.601 893.252 620.193 892.78 629.337C892.456 635.646 893.262 642.022 893.662 648.361C893.895 652.064 894.32 655.754 894.66 659.449C895.322 659.43 895.983 659.41 896.644 659.392C897.143 656.157 898.275 652.873 898.026 649.7C897.119 638.258 895.739 626.858 894.554 615.442C894.064 610.732 894.223 605.787 889.406 602.415ZM906.944 640.692C907.492 640.602 908.038 640.514 908.586 640.425C907.506 618.718 904.879 597.253 897.863 575.508C895.708 583.466 896.394 589.401 899.414 595.74C900.623 598.278 901.703 601.024 902.099 603.778C903.862 616.062 905.355 628.384 906.944 640.692ZM138.403 646.733C137.894 646.772 137.386 646.809 136.876 646.848C136.031 666.345 139.083 685.626 140.323 705.233C145.703 700.733 145.45 695.754 144.088 690.064C142.314 682.657 141.228 675.064 140.247 667.499C139.354 660.613 138.996 653.657 138.403 646.733ZM895.511 483.653C895.055 483.674 894.6 483.697 894.146 483.721C892.288 513.057 893.69 542.284 897.498 571.5C898.616 569.226 898.943 566.906 898.798 564.617C898.119 553.844 897.02 543.09 896.616 532.313C896.008 516.101 895.856 499.873 895.511 483.653ZM433.339 676.602C433.692 676.457 434.046 676.312 434.399 676.165C433.734 674.217 433.602 671.124 432.311 670.525C427.475 668.274 422.259 666.837 417.223 665.11V686.334C417.519 686.34 417.816 686.348 418.114 686.356C418.875 683.178 419.636 680.004 420.399 676.826C420.868 676.869 421.338 676.91 421.807 676.949C422.03 679.597 422.252 682.244 422.475 684.889C422.7 684.91 422.924 684.933 423.148 684.954C424.15 681.03 425.151 677.108 426.151 673.186L427.62 673.569C428.031 676.686 428.255 679.845 428.943 682.902C429.228 684.17 430.712 686.277 431.29 686.162C433.038 685.818 434.61 684.577 436.25 683.681C430.755 681.91 429.296 678.921 431.668 674.113C432.264 675.004 432.803 675.804 433.339 676.602ZM133.216 716.861C137.495 711.037 137.2 672.069 132.728 661.676C131.25 665.816 128.703 669.233 129.25 672.045C131.97 686.061 133.292 700.105 132.643 714.353C132.618 714.916 132.892 715.49 133.216 716.861ZM888.6 549.696C889.4 549.612 890.2 549.526 891 549.44V484.776C885.084 484.814 887.143 489.532 887.088 493.099C886.888 506.615 886.474 520.133 886.598 533.648C886.647 539.002 887.896 544.346 888.6 549.696ZM477.908 308.59C474.854 312.418 478.168 364.837 481.632 374.825C485.37 370.52 486.66 365.841 484.999 359.369C481.903 347.307 479.79 335.153 479.554 322.661C479.468 318.118 478.52 313.596 477.908 308.59ZM125.315 739.186C125.644 739.217 125.974 739.249 126.303 739.28C126.838 736.48 127.196 733.632 127.944 730.892C129.558 724.976 132.778 719.613 129.96 712.782C128.228 708.582 129.088 703.326 128.718 698.55C128.143 691.145 127.511 683.741 126.895 676.222C122.495 676.444 122.831 679.108 122.908 681.421C123.276 692.438 123.686 703.454 124.143 714.468C124.484 722.709 124.922 730.946 125.315 739.186ZM883.646 488.59C877.527 494.648 879.394 550.294 886.466 574.997C887.723 575.432 889.122 576.164 889.295 577.117C890.516 583.846 891.484 590.623 892.535 597.383L893.711 597.398C893.711 593.685 894.191 589.893 893.615 586.271C892.296 577.956 890.472 569.718 888.832 561.453C888.06 557.557 887.195 553.68 886.452 549.776C885.475 544.63 883.899 539.486 883.774 534.313C883.412 519.322 883.646 504.322 883.646 488.59ZM162.442 680.642C162.89 680.894 163.339 681.146 163.787 681.397C166.754 678.045 170.198 674.976 172.456 671.2C173.388 669.642 171.744 666.569 171.326 664.178C170.858 661.512 170.311 658.85 170.043 656.162C168.999 645.689 168.091 635.2 167.016 624.728C166.903 623.616 166.135 621.768 165.494 621.688C164.263 621.536 162.103 622.07 161.744 622.917C160.426 626.033 159.152 629.348 158.867 632.673C158.516 636.769 159.074 640.96 159.41 645.092C160.374 656.946 161.424 668.793 162.442 680.642ZM492.434 482.396C491.919 482.364 491.403 482.333 490.887 482.3C490.887 476.501 490.983 470.7 490.847 464.904C490.774 461.807 490.911 458.497 489.884 455.672C486.902 447.45 483.39 439.421 480.054 431.329C479.636 430.315 479.032 429.374 478.738 428.82C479.538 454.889 480.346 481.134 481.178 508.181C491.919 488.861 499.507 474.864 493.424 467.928C493.102 472.645 492.767 477.52 492.434 482.396ZM448.78 359.798C448.156 359.817 447.534 359.836 446.908 359.854C446.908 363.437 446.807 367.02 446.924 370.598C447.618 391.482 448.327 412.366 449.098 433.246C449.655 448.386 449.919 463.552 451.072 478.648C451.819 488.452 453.926 498.153 455.439 507.897C455.887 510.784 456.387 513.661 456.863 516.542C457.37 516.488 457.876 516.433 458.384 516.38C455.184 464.184 451.982 411.992 448.78 359.798ZM151.974 628.816C150.36 630.088 149.635 631.069 148.71 631.318C142.559 632.993 139.914 637.561 141.17 643.873C142.062 648.356 142.606 652.925 143.014 657.485C143.838 666.697 144.386 675.933 145.216 685.145C145.488 688.168 146.276 691.146 146.828 694.145C147.4 694.222 147.971 694.301 148.543 694.378C149.251 692.646 150.414 690.957 150.567 689.178C150.839 686.025 150.878 682.757 150.34 679.649C148.93 671.496 146.866 663.446 145.616 655.272C144.507 648.017 144.111 640.642 148.812 632.645C150.248 653.192 151.586 672.312 152.959 691.982C158.786 685.132 158.923 685.118 158.442 679.358C157.542 668.55 156.659 657.736 155.386 646.968C154.686 641.048 153.204 635.22 151.974 628.816ZM450.995 544.753C456.81 536.669 447.21 528.336 453.074 519.95C453.6 523.458 453.794 525.81 454.339 528.078C454.907 530.432 455.818 532.701 456.674 535.295C462.294 530.049 462.906 527.31 459.422 522.844V528.948C457.592 527.88 456.62 526.549 456.2 525.062C455.423 522.308 454.81 519.481 454.411 516.648C451.656 497.077 447.838 477.573 446.562 457.905C445.002 433.857 445.695 409.669 445.198 385.544C445.04 377.969 444.186 370.409 443.564 361.637C439.018 370.037 445.608 521.21 450.995 544.753ZM470.811 316.448C470.256 316.468 469.702 316.489 469.15 316.509C468.9 322.808 468.275 329.118 468.476 335.402C469.032 352.802 471.406 370.129 470.446 387.594C469.736 400.517 472.103 413.257 471.552 426.358C470.443 452.778 472.376 479.326 473.143 505.818C473.231 508.874 473.867 511.914 474.311 515.468C478.882 512.59 478.815 508.686 478.719 504.924C478.306 488.804 477.942 472.679 477.231 456.571C476.868 448.377 475.644 440.224 475.114 432.032C474.611 424.258 474.575 416.454 474.2 408.673C473.77 399.718 473.384 390.869 477.638 382.445C478.755 380.229 478.69 377.148 478.414 374.544C477.455 365.51 476.187 356.509 474.994 347.504C473.623 337.148 472.207 326.798 470.811 316.448ZM461.954 383.201C461.526 383.194 461.098 383.189 460.671 383.182C460.598 384.448 460.432 385.713 460.463 386.973C460.802 401.493 460.679 416.045 461.652 430.522C462.971 450.101 465.224 469.614 466.892 489.17C467.494 496.236 467.563 503.346 467.875 510.437C467.151 510.477 466.428 510.517 465.704 510.557C458.538 453.948 458.198 396.844 455.275 339.929C454.502 339.861 453.73 339.793 452.958 339.728C452.272 342.982 450.915 346.26 451.024 349.489C451.472 362.73 452.26 375.965 453.118 389.189C455.555 426.796 457.98 464.402 460.668 501.993C461.235 509.902 462.898 517.734 464.235 526.82C468.876 522.656 470.387 518.893 470.306 514.612C470.111 504.714 469.658 494.822 469.376 484.925C468.054 438.146 466.726 391.369 465.468 344.589C465.272 337.278 465.442 329.958 465.442 321.673C458.84 328.526 459.083 335.781 459.727 343.205C461.911 368.325 464.064 393.451 466.104 418.583C466.443 422.756 466.152 426.98 466.152 431.178C465.782 431.202 465.411 431.227 465.04 431.249C464.011 415.233 462.982 399.218 461.954 383.201ZM411.184 658.436C414.788 653.392 417.995 647.985 422.147 643.444C424.532 640.837 425.608 638.689 425.387 635.189C424.278 617.648 423.418 600.093 422.51 582.538C422.387 580.161 422.494 577.771 422.835 575.369C425.034 596.909 427.231 618.45 429.488 640.569C434.44 639.249 439.052 638.204 443.499 636.681C444.398 636.371 445.264 634.184 445.144 632.962C443.906 620.414 442.456 607.885 441.071 595.349C438.984 576.469 436.892 557.586 434.838 538.701C434.686 537.302 434.818 535.875 434.818 534.461C435.212 534.401 435.606 534.341 436 534.281L447.82 604.929C447.95 604.924 448.076 604.922 448.203 604.917C447.062 585.486 445.919 566.06 444.698 545.284C447.354 561.901 449.799 577.196 452.244 592.492C452.551 592.456 452.858 592.417 453.163 592.38C449.07 555.701 443.687 519.106 441.244 482.316C438.812 445.658 439.334 408.804 438.559 372.036C437.752 372.053 436.946 372.069 436.139 372.088C436.064 399.695 438.008 427.276 437.931 454.924C435.474 433.038 433.016 411.152 430.559 389.265C430.383 389.273 430.207 389.281 430.032 389.286C431.314 426.661 432.595 464.036 433.876 501.41C433.652 501.418 433.428 501.428 433.204 501.437C430.795 463.218 428.386 425 425.942 386.236C419.714 389.293 416.826 394.378 416.576 400.132C416.103 411.094 416.256 422.121 416.855 433.083C418.064 455.255 419.751 477.398 421.231 499.557C421.614 505.281 421.966 511.009 421.626 516.801C418.223 486.622 414.819 456.445 411.416 426.268C411.098 426.288 410.78 426.309 410.462 426.332C412.231 459.82 414.002 493.308 415.771 526.797C415.474 526.814 415.175 526.833 414.878 526.854C410.55 489.494 406.222 452.137 401.895 414.78C399.872 456.366 400.98 497.859 403.972 539.369C401.544 518.151 399.116 496.936 396.728 476.062V517.28C394.919 489.958 393.082 462.226 391.244 434.494C390.915 434.494 390.587 434.493 390.256 434.492V525.45C389.746 525.472 389.234 525.492 388.723 525.516C385.804 493.35 382.887 461.186 379.97 429.022C375.632 451.45 375.508 473.95 378.443 497.45C372.364 486.122 367.972 457.721 370.747 437.101C371.334 447.596 371.919 458.09 372.504 468.585C375.255 455.016 374.931 441.569 371.144 428.236C365.368 445.602 363.367 463.331 364.85 481.571C363.959 475.363 362.895 469.174 362.226 462.941C361.526 456.44 361.203 449.896 360.482 443.388C358.7 467.641 363.143 491.5 365.93 515.46C365.248 515.548 364.566 515.634 363.884 515.721C362.272 504.558 360.343 493.43 359.138 482.226C357.919 470.882 357.416 459.462 355.556 447.97C354.502 459.726 353.447 471.48 352.318 484.066C351.132 469.634 350.01 455.976 348.808 441.358C343.508 460.593 343.53 479.299 345.512 498.145C345.011 498.175 344.511 498.202 344.01 498.23C342.651 484.494 341.292 470.757 339.926 456.948C336.64 470.874 336.008 485.032 336.892 499.453C335.411 490.726 333.93 481.997 332.448 473.268C332.2 473.23 331.954 473.194 331.707 473.158C330.968 482.884 330.228 492.609 329.49 502.336C328.967 502.39 328.443 502.445 327.92 502.502C327.094 496.694 326.266 490.889 325.458 485.213C321.45 493.746 321.788 503.012 321.818 512.621C320.55 507.08 319.282 501.536 318.012 495.994C317.7 495.824 317.386 495.655 317.072 495.484C314.339 503.4 311.603 511.318 308.95 519C307.702 518.073 305.915 516.744 303.335 514.826C304.316 540.44 305.3 565.005 293.271 587.484C290.02 593.557 285.084 598.726 280.164 603.95C293.682 569.701 296.879 535.084 287.495 499.651C286.803 499.613 286.111 499.574 285.419 499.538C284.707 515.658 283.998 531.778 283.323 547.047C281.239 532.896 279.018 517.813 276.795 502.729C276.164 502.773 275.534 502.816 274.903 502.858V550.547C274.552 550.568 274.202 550.59 273.851 550.614C271.972 538.333 270.094 526.052 268.215 513.769C266.108 533.333 266.308 552.753 269.007 572.177C265.98 559.289 262.952 546.398 259.926 533.508C259.686 533.538 259.447 533.571 259.207 533.599C260.227 551.763 261.247 569.924 262.266 588.089C261.982 588.117 261.7 588.146 261.416 588.174C258.986 575.94 256.555 563.708 254.124 551.474C253.95 551.508 253.776 551.544 253.602 551.578V593.456C253.506 593.502 253.41 593.552 253.314 593.599C251.347 581.647 249.379 569.69 247.412 557.734C245.802 574.898 246.871 591.877 249.482 609.139C247.61 605.311 245.554 601.557 243.919 597.63C242.208 593.518 240.699 589.297 239.482 585.016C238.283 580.797 237.56 576.44 236.627 572.146C236.208 572.144 235.788 572.144 235.37 572.141V603.63C235.083 603.646 234.798 603.658 234.511 603.674C233.056 597.357 231.602 591.041 230.146 584.724C229.86 584.745 229.575 584.768 229.288 584.789C230.215 598.59 231.142 612.393 232.067 626.194C231.883 626.22 231.699 626.249 231.515 626.277C229.122 612.3 226.728 598.317 224.335 584.338L223.758 584.393V621.716C221.563 610.633 219.126 598.331 216.688 586.029C212.876 600.068 213.327 614.325 213.482 628.733C212.311 623.842 211.139 618.95 209.967 614.06C209.716 614.09 209.466 614.122 209.215 614.15C210.2 626.116 211.187 638.082 212.172 650.045C211.966 650.072 211.758 650.1 211.551 650.129C208.991 634.905 206.431 619.68 203.872 604.456C203.3 604.497 202.73 604.541 202.159 604.584V645.921C201.759 645.973 201.36 646.022 200.96 646.072C199.49 639.35 198.019 632.632 196.548 625.91C196.24 625.941 195.931 625.973 195.622 626.001C196.587 639.861 197.551 653.72 198.515 667.58C198.311 667.624 198.106 667.668 197.899 667.712C195.862 657.842 193.824 647.97 191.786 638.1C190.106 655.094 191.868 671.757 195.071 688.514C193.91 685.605 192.607 682.747 191.623 679.777C190.623 676.761 189.851 673.657 189.14 670.558C188.399 667.321 187.85 664.042 186.99 659.61C182.846 672.605 182.519 684.668 183.592 697.08C180.868 690.861 178.144 684.64 175.08 677.642C156.855 707.296 138.926 736.465 120.999 765.634C120.632 765.605 120.264 765.574 119.896 765.542C118.547 740.246 117.196 714.949 115.846 689.649C111.44 707.652 110.57 725.908 109.911 744.257C108.743 732.04 107.576 719.824 106.408 707.608C106.299 707.613 106.19 707.618 106.08 707.624V742.848C103.852 730.416 101.255 715.924 98.6578 701.43C98.2498 701.504 97.8432 701.577 97.4352 701.649C97.9632 718.714 98.4911 735.78 99.0191 752.845C98.8245 752.856 98.6312 752.866 98.4378 752.876C97.2565 739.53 96.0765 726.186 94.8965 712.842C94.7071 712.837 94.5165 712.834 94.3271 712.829V732.754C91.5911 721.689 88.8698 710.684 86.1485 699.676C85.7418 699.761 85.3351 699.845 84.9285 699.928V767.963C82.8165 747.361 80.6632 726.337 78.5072 705.312C74.3565 725.796 74.8591 746.298 77.7458 766.824C77.2178 766.897 76.6912 766.968 76.1632 767.037C73.4952 750.321 70.8258 733.605 68.0205 716.03C67.1085 724.996 65.9352 733.312 65.5072 741.662C65.0845 749.928 65.4152 758.23 65.4152 765.145C63.3232 754.366 60.9485 742.134 58.5738 729.9C58.2831 729.853 57.9938 729.804 57.7032 729.757C56.4872 735.056 54.9925 740.312 54.1285 745.668C53.2432 751.17 52.9738 756.772 52.0338 762.436C51.2698 755.064 50.5045 747.694 49.7405 740.321C49.4325 740.313 49.1258 740.309 48.8191 740.304V771.304L47.5872 771.351C46.1858 762.075 44.7845 752.798 43.3845 743.522C43.1591 743.548 42.9325 743.574 42.7072 743.6C41.2698 751.569 39.8325 759.537 38.3938 767.509L37.8191 767.493V744.892C31.2085 747.869 27.9738 755.801 27.2565 768.886C25.8005 765.389 24.3432 761.892 22.8338 758.266C18.1578 769.397 9.82182 773.266 0.000488281 768.493C2.38982 765.864 4.6685 763.356 7.04183 760.741C7.5725 761.704 7.90449 762.309 8.37382 763.16C9.40315 754.78 16.3538 751.056 21.0538 745.869C37.6912 727.512 54.7485 709.535 71.5778 691.351C76.8445 685.657 82.1138 682.54 90.8551 684.296C100.451 686.223 108.082 680.1 113.252 672.329C116.918 666.821 119.852 660.618 122.002 654.348C128.527 635.306 140.355 620.406 156.712 609.169C169.467 600.406 182.728 592.38 195.82 584.114C210.195 575.038 224.57 565.756 234.446 551.622C240.708 542.658 245.264 532.51 250.672 522.942C255.843 513.796 260.623 504.374 266.508 495.709C271.792 487.932 279.654 483.333 289.292 482.166C301.178 480.729 309.792 473.765 317.068 464.925C323.056 457.649 328.699 450.088 334.534 442.685C341.046 434.421 348.603 427.124 358.264 422.913C399.768 404.822 426.814 372.265 448.223 333.957C453.595 324.345 458.802 314.642 464.01 304.942C469.848 294.069 478.132 290.142 490.294 292.904C501.192 295.38 510.294 300.882 515.783 310.809C520.244 318.877 524.362 327.236 527.622 335.849C534.59 354.246 546.368 368.262 563.264 378.221C571.375 383.002 579.287 388.126 587.218 393.208C601.819 402.56 611.543 415.484 616.042 432.356C617.926 439.43 619.68 446.691 622.811 453.237C625.987 459.883 630.144 466.325 635.042 471.814C640.962 478.452 649.118 481.336 658.115 479.416C666.888 477.547 674.171 480.341 680.85 485.525C688.823 491.716 694.255 499.966 699.3 508.569C703.734 516.129 708.075 523.823 713.323 530.805C720.11 539.831 728.92 546.409 741.03 544.685C746.574 543.896 751.983 541.497 757.2 539.243C763.48 536.527 769.284 532.604 775.69 530.314C780.16 528.718 785.431 527.992 790.108 528.622C800.215 529.989 808.779 526.906 816.619 521.27C828.938 512.412 841.03 503.233 853.191 494.156C862.92 486.89 872.818 479.832 882.266 472.216C894.642 462.241 908.014 461.238 922.324 466.681C935.831 471.817 947.032 480.285 955.199 492.109C962.354 502.465 968.876 513.306 975.018 524.302C985.962 543.898 1000.26 559.844 1020.59 570.112C1036.41 578.104 1048.22 590.524 1057.52 605.467C1064.7 616.984 1071.76 628.572 1079.21 639.916C1088.08 653.441 1100.04 663.522 1114.6 670.64C1122.48 674.488 1130.24 678.621 1137.84 683.001C1147.21 688.405 1154.14 696.157 1158.91 705.952C1161.97 712.252 1165.29 718.462 1168.97 724.421C1172.9 730.801 1178.63 733.878 1186.52 734.028C1224.64 734.749 1259.95 761.998 1270.49 798.454C1271.14 800.709 1273.19 803.902 1269.87 805.088C1268.14 805.706 1264.78 804.272 1263.34 802.687C1260.95 800.056 1258.93 796.757 1257.79 793.386C1247.37 762.665 1214.34 742.717 1182.5 748.28C1180.63 748.608 1178.95 750.042 1177.18 750.962L1177.3 750.842C1176.07 749.649 1174.69 748.577 1173.64 747.241C1164.96 736.184 1156.51 724.944 1147.65 714.028C1139.23 703.642 1129.34 694.642 1117.48 688.428C1093.06 675.624 1075.2 656.504 1061.05 633.194C1053.35 620.526 1044.87 608.268 1035.91 596.464C1027.47 585.349 1016.55 577.032 1002.81 573.078C1001.91 572.82 1000.97 572.724 998.746 572.313C999.622 577.322 999.94 581.874 1001.25 586.122C1004.81 597.653 1012.45 606.781 1019.66 616.156C1026.17 624.632 1032.83 633.042 1038.65 641.993C1043.61 649.624 1046.11 658.241 1043.72 667.564C1043.45 668.624 1043.02 669.645 1042.43 671.366C1041.05 666.194 1040.65 661.266 1038.48 657.309C1032.92 647.132 1026.82 637.22 1020.46 627.517C1015.91 620.586 1009.92 614.546 1005.77 607.417C1000.84 598.942 995.991 590.086 993.194 580.768C980.987 540.141 952.474 498.848 919.783 476.809C916.926 485.266 913.735 493.328 911.478 501.642C903.182 532.205 904.93 562.562 913.604 592.825C916.186 601.833 917.72 611.164 919.327 620.417C920.862 629.252 919.588 637.918 916.391 646.285C910.003 662.998 904.18 679.9 902.228 697.793C899.116 726.313 903.963 752.618 925.078 773.866C935.304 784.157 948.547 788.96 961.994 793.28C972.76 796.739 983.61 799.993 994.211 803.913C1003.4 807.312 1011.61 812.496 1018.86 821.097C1016.27 820.611 1014.71 820.384 1013.18 820.023C989.722 814.483 966.352 808.6 945.036 796.853C922.987 784.7 905.495 768.214 896.868 743.858C895.071 738.782 894.143 733.4 892.671 727.6C860.995 761.321 822.92 784.113 778.05 795.454C792.979 786.444 808.131 778.028 822.494 768.428C837.167 758.621 848.668 745.594 856.408 728.14C857.452 732.59 858.228 735.889 859.238 740.189C860.159 737.184 860.478 734.826 861.555 732.889C864.855 726.941 868.247 721.023 872.058 715.403C873.046 713.944 875.7 713.616 877.588 712.769C877.899 713.249 878.208 713.73 878.52 714.209C877.796 716.564 877.072 718.916 876.396 721.113C882.52 720.077 886.422 717.316 886.028 710.749C886.606 712.173 887.184 713.597 887.763 715.025C887.923 715.017 888.083 715.009 888.243 715.001C888.044 712.14 887.711 709.28 887.684 706.418C887.646 702.54 886.211 698.446 890.628 695.4C891.938 694.496 892.018 691.258 892.008 689.094C891.979 682.225 891.662 675.356 891.399 668.485C891.366 667.597 891.252 666.501 890.727 665.876C889.011 663.834 887.087 661.968 885.135 659.921C885.367 665.186 885.623 671.012 885.884 676.978C883.222 675.512 883.212 675.512 882.519 660.364C882.24 654.298 881.402 648.173 881.947 642.176C882.463 636.514 884.462 630.988 886.775 625.408C887.778 637.47 888.782 649.533 889.783 661.597C890.238 661.58 890.691 661.564 891.144 661.545C891.144 660.116 891.262 658.673 891.127 657.254C888.968 634.689 886.948 612.106 884.41 589.584C884.015 586.084 881.296 582.813 879.519 579.508C874.752 570.641 872.075 561.224 871.856 551.141C871.836 550.284 871.987 549.423 873.222 548.352C875.624 557.271 878.026 566.193 880.426 575.112C880.53 575.101 880.631 575.093 880.734 575.086C878.93 547.578 877.13 520.073 875.327 492.564C874.862 492.569 874.394 492.572 873.926 492.577V517.109V541.685C869.38 529.529 872.355 516.521 869.427 503.806C867.978 510.804 866.527 517.8 864.858 525.852C863.912 517.037 863.078 509.257 862.244 501.477C859.358 516.44 860.034 531.385 861.746 546.513C860.963 543.68 860.09 540.868 859.422 538.008C858.7 534.906 858.103 531.771 857.57 528.628C857.042 525.508 856.662 522.362 855.232 519.169C854.575 528.461 853.916 537.753 853.256 547.041C852.944 547.115 852.632 547.185 852.32 547.257C849.18 541.128 846.04 534.997 842.682 528.437C841.646 530.141 840.97 531.544 840.028 532.743C836.728 536.951 832.146 537.12 828.02 533.68C826.986 532.817 824.868 532.464 823.54 532.857C796.262 540.948 768.502 546.705 740.268 550.146C731.412 551.226 722.503 551.88 713.168 552.77C721.084 579.503 735.055 602.36 754.206 622.693C752.554 622.106 750.844 621.644 749.258 620.915C736.915 615.24 728.068 605.641 722.755 593.625C716.4 579.253 711.735 564.136 706.274 549.365C703.015 540.552 700.084 531.581 696.21 523.044C688.486 506.018 675.635 494.572 657.559 489.017C648.279 486.164 639.043 483.038 630.066 479.358C619.82 475.158 614.042 467.749 611.847 456.186C605.834 424.516 587.376 402.057 558.119 388.508C557.255 388.108 556.34 387.81 555.434 387.517C555.148 387.424 554.81 387.502 554.152 387.502C551.37 395.992 551.786 404.653 555.171 412.598C559.652 423.116 565.395 433.096 570.603 443.304C576.243 454.364 582.338 465.224 587.334 476.565C589.63 481.779 589.774 487.94 590.895 493.67C590.372 494.033 589.851 494.397 589.33 494.761C586.895 493.008 583.775 491.726 582.166 489.4C578.664 484.334 575.22 479.012 573.004 473.309C559.96 439.729 547.582 405.89 534.364 372.382C525.427 349.729 513.971 328.35 498.01 309.682C496.35 307.74 494.587 305.885 492.838 304.02C492.543 303.705 492.083 303.548 491.29 303.072C492.332 309.973 493.499 316.465 494.264 323.008C496.871 345.252 493.602 366.776 484.27 387.009C478.684 399.118 478.558 410.676 483.488 422.593C487.39 432.017 491.718 441.265 495.71 450.654C501.838 465.069 505.21 479.85 496.778 494.361C492.162 502.302 485.928 509.301 480.468 516.754C474.45 524.972 467.7 532.778 462.682 541.57C456.351 552.658 455.859 564.229 462.279 576.221C469.411 589.538 468.466 603.756 463.011 617.516C455.612 636.181 442.64 648.878 422.592 653.485C421.994 653.624 421.446 653.982 420.396 654.454C435.976 660.394 446.316 670.624 450.51 686.826C442.963 688.788 435.824 690.329 428.891 692.517C419.208 695.575 410.935 700.813 405.583 709.818C401.932 715.96 400.114 722.613 402.318 729.545C406.735 743.43 402.018 754.649 392.626 764.478C383.995 773.509 360.919 782.968 347.887 783.204C347.78 782.444 347.579 781.665 347.576 780.886C347.556 769.233 347.563 757.58 347.563 747.946C349.018 755.694 350.87 765.559 352.862 776.168C359.03 773.105 364.912 770.433 370.464 767.194C371.448 766.621 371.42 763.649 371.238 761.848C370.083 750.457 368.754 739.082 367.482 727.702C368.29 727.574 369.099 727.444 369.907 727.313C371.988 737.999 374.07 748.684 376.283 760.036C379.086 753.356 379.006 746.813 377.738 740.358C375.824 730.613 370.938 722.548 362.794 716.608C361.803 715.884 360.46 714.938 360.282 713.921C358.687 704.905 357.319 695.848 356.831 686.54C359.822 693.826 362.811 701.116 366.187 709.34C366.711 700.6 367.176 692.837 367.643 685.077C368.1 685.042 368.558 685.009 369.015 684.976C371.835 708.08 376.534 730.736 384.366 753.517C382.623 727.925 380.94 703.206 379.256 678.488C379.41 678.496 379.563 678.504 379.715 678.512C382.49 697.87 385.264 717.23 388.039 736.59C388.307 736.537 388.574 736.485 388.84 736.433C387.927 716.113 387.014 695.796 386.099 675.478C386.648 675.433 387.199 675.389 387.747 675.345C388.411 694.378 389.691 713.326 394.992 732.433C393.248 712.246 391.567 692.782 389.886 673.321C390.398 673.258 390.91 673.197 391.422 673.134C393.243 683.318 395.064 693.501 396.887 703.684C397.278 703.652 397.668 703.621 398.059 703.59C398.187 701.616 398.903 699.46 398.351 697.697C394.088 684.082 396.643 670.097 395.978 656.309C395.322 642.749 395.568 629.14 395.638 615.552C395.65 613.054 396.71 610.56 397.511 607.084C399.046 620.21 400.411 631.84 401.754 643.473C401.824 644.09 401.978 645.077 401.667 645.301C396.884 648.746 398.884 653.728 398.806 658.132C398.64 667.384 398.755 676.64 398.755 685.892C399.288 685.91 399.82 685.928 400.354 685.946C402.048 660.668 403.743 635.386 405.438 610.107H405.702C406.188 628.132 406.674 646.157 407.167 664.418C408.563 662.353 409.89 660.389 411.214 658.428C411.019 660.777 410.608 663.134 410.68 665.476C410.796 669.272 411.364 673.053 411.494 676.851C411.644 681.275 411.528 685.709 411.528 690.14C414.706 679.566 415.172 668.993 411.184 658.436Z" fill="#231F20"/>
<path fill-rule="evenodd" clip-rule="evenodd" d="M709.321 650.681C708.63 652.009 708.302 653.569 707.605 653.757C706.63 654.019 704.853 653.615 704.344 652.869C702.488 650.147 701.036 647.15 699.394 644.277C696.577 639.353 693.564 634.53 690.952 629.498C688.781 625.317 686.461 621.057 685.266 616.551C681.81 603.521 673.036 594.709 662.57 587.403C659.83 585.491 655.572 584.906 652.081 585.081C641.424 585.611 631.394 583.263 621.905 578.937C618.216 577.255 614.257 574.253 612.44 570.791C609.072 564.385 607.06 557.239 604.822 550.294C604.437 549.098 605.734 547.362 606.252 545.875C607.397 546.818 609.02 547.534 609.59 548.747C611.005 551.761 612.2 554.931 613.017 558.158C615.613 568.406 622.914 573.059 632.6 574.515C639.366 575.531 646.242 575.859 653.076 576.401C660.348 576.974 666.764 579.497 671.888 584.75C676.564 589.543 681.189 594.403 685.536 599.491C687.36 601.63 689.288 604.31 689.652 606.953C691.13 617.661 698.032 625.73 702.462 634.99C704.929 640.147 707.054 645.465 709.321 650.681Z" fill="#231F20"/>
<path fill-rule="evenodd" clip-rule="evenodd" d="M1177.18 750.962C1187.96 754.413 1196.57 761.183 1204.14 769.265C1215.8 781.71 1222.82 796.429 1224.74 813.443C1224.35 813.819 1223.95 814.191 1223.56 814.563C1223.02 813.533 1222.6 812.405 1221.91 811.483C1207.45 792.222 1192.96 772.99 1178.52 753.722C1177.91 752.913 1177.69 751.814 1177.29 750.845C1177.29 750.842 1177.18 750.962 1177.18 750.962Z" fill="#231F20"/>
<path fill-rule="evenodd" clip-rule="evenodd" d="M1012.56 718.264C1010.37 716.201 1008.63 715.176 1007.77 713.652C1001.62 702.835 992.707 695.157 982.321 688.371C972.302 681.824 967.378 670.847 963.247 659.865C963.03 659.288 964.899 657.24 965.985 657.067C966.834 656.933 968.654 658.501 968.883 659.567C971.077 669.699 978.903 674.649 986.825 679.548C998.654 686.86 1007.66 696.725 1013.69 709.264C1014.37 710.683 1015.23 712.277 1015.13 713.733C1015.04 715.037 1013.76 716.267 1012.56 718.264Z" fill="#231F20"/>
<path fill-rule="evenodd" clip-rule="evenodd" d="M502.278 584.297C504.199 581.649 505.809 577.718 507.234 577.786C511.707 577.994 511.707 582.013 511.169 585.442C509.865 593.753 513.414 600.661 518.338 606.497C520.541 609.103 525.311 610.718 528.93 610.742C541.222 610.821 547.978 618.518 553.969 627.498C554.661 628.538 553.851 630.577 553.737 632.155C552.185 631.771 550.615 631.446 549.09 630.975C548.707 630.858 548.385 630.314 548.179 629.897C543.483 620.315 535.453 616.797 525.181 616.466C518.345 616.245 512.679 612.695 509.917 606.439C506.875 599.549 504.937 592.171 502.278 584.297Z" fill="#231F20"/>
<path fill-rule="evenodd" clip-rule="evenodd" d="M861.946 654.861C862.241 660.915 862.535 666.973 862.831 673.03C863.093 673.077 863.355 673.123 863.618 673.17L868.747 643.123C869.19 643.061 869.631 642.999 870.073 642.937C870.998 652.213 871.922 661.486 872.847 670.759L873.226 670.626C873.226 662.967 873.25 655.306 873.218 647.645C873.197 642.339 873.161 642.339 878.811 639.431C879.599 649.035 880.37 658.437 881.139 667.806C878.615 667.319 878.595 667.322 877.59 658.522C877.146 654.631 876.802 650.727 875.318 646.91C875.67 653.626 876.01 660.339 876.375 667.054C876.507 669.446 877.046 671.879 876.753 674.213C876.517 676.087 875.307 677.842 874.53 679.653C874.11 679.517 873.693 679.382 873.273 679.243C873.391 680.407 873.51 681.571 873.627 682.733C873.225 682.915 872.822 683.098 872.418 683.279C871.775 682.238 870.639 681.227 870.569 680.15C870.174 674.041 870.034 667.915 869.35 661.822C865.841 669.205 868.857 678.303 862.503 684.801C860.721 674.718 858.726 664.839 859.99 654.825C860.641 654.834 861.294 654.847 861.946 654.861Z" fill="#231F20"/>
<path fill-rule="evenodd" clip-rule="evenodd" d="M279.105 620.339C277.676 626.061 276.241 630.955 275.285 635.936C274.636 639.327 274.193 642.889 274.518 646.291C274.834 649.603 273.638 651.569 270.95 652.752C267.761 654.152 264.253 654.895 261.193 656.507C256.798 658.824 252.748 661.785 248.413 664.228C246.858 665.103 244.906 665.267 243.134 665.756C243.532 663.968 243.316 661.345 244.428 660.525C250.246 656.225 256.178 651.963 262.537 648.559C265.721 646.853 267.285 645.187 267.918 641.676C269.216 634.501 270.922 627.387 272.782 620.333C273.128 619.021 274.981 618.107 276.138 617.011C277.2 618.2 278.261 619.391 279.105 620.339Z" fill="#231F20"/>
<path fill-rule="evenodd" clip-rule="evenodd" d="M795.434 677.819C787.144 674.267 778.265 671.622 770.68 666.9C762.064 661.538 758.756 651.866 756.25 642.35C755.94 641.171 757.466 639.504 758.141 638.064C759.105 639.124 760.365 640.038 760.969 641.272C762.221 643.84 763.121 646.576 764.169 649.243C767.553 657.847 772.99 663.811 782.872 664.754C785.978 665.051 789.01 666.382 792.017 667.412C797.497 669.292 798.27 671.434 795.434 677.819Z" fill="#231F20"/>
<path fill-rule="evenodd" clip-rule="evenodd" d="M1127.46 740.105C1119.86 744.796 1116.03 744.371 1111.65 738.1C1108.76 733.969 1106.56 729.313 1104.39 724.736C1100.93 717.457 1095.94 712.16 1087.89 710.02C1086.54 709.66 1085.55 707.955 1084.4 706.871C1085.84 705.873 1087.41 703.903 1088.69 704.077C1091.54 704.463 1094.77 705.291 1096.92 707.061C1103.47 712.449 1109.24 718.621 1111.83 727.051C1113.4 732.147 1116.37 735.577 1121.91 736.696C1123.76 737.072 1125.35 738.759 1127.46 740.105Z" fill="#231F20"/>
<path fill-rule="evenodd" clip-rule="evenodd" d="M1186.57 811.371C1185.9 812.368 1185.34 814.032 1184.56 814.147C1183.41 814.313 1181.66 813.732 1180.94 812.843C1177.29 808.399 1174.16 803.507 1170.3 799.277C1168.22 796.999 1165.24 795.024 1162.3 794.155C1155.89 792.256 1147.08 782.275 1146.82 775.428C1146.78 774.499 1147.43 773.113 1148.18 772.704C1148.92 772.297 1150.32 772.619 1151.2 773.071C1151.96 773.461 1152.74 774.415 1152.91 775.245C1154.67 783.623 1160.3 786.907 1168.08 789.811C1177.32 793.267 1182.36 802.068 1186.57 811.371Z" fill="#231F20"/>
<path fill-rule="evenodd" clip-rule="evenodd" d="M427.451 516.939C427.285 515.162 426.918 513.377 426.979 511.606C427.835 486.955 425.558 462.522 422.786 438.049C421.21 424.135 421.731 409.985 421.358 395.939C421.337 395.118 421.75 394.285 422.606 393.494C424.847 434.642 430.522 475.562 429.453 516.795L427.451 516.939Z" fill="#231F20"/>
<path fill-rule="evenodd" clip-rule="evenodd" d="M327.823 725.863C329.644 719.767 329.01 712.775 334.039 707.115C335.026 712.366 335.922 716.785 336.628 721.235C336.746 721.983 336.099 723.511 335.707 723.549C334.791 723.629 333.423 723.293 332.952 722.623C332.212 721.571 332.059 720.106 331.295 717.645C330.839 722.259 330.702 725.723 330.063 729.09C329.816 730.394 328.434 731.481 327.568 732.666C326.411 731.574 324.474 730.621 324.247 729.361C323.575 725.631 323.58 721.779 322.562 717.869C321.958 721.946 321.354 726.025 320.66 730.718C315.478 725.945 313.818 707.207 318.108 702.975C318.428 708.063 318.711 712.569 318.992 717.071C319.456 717.069 319.918 717.063 320.38 717.061C320.519 715.459 320.68 713.861 320.794 712.259C320.983 709.554 319.82 705.298 323.626 705.327C327.618 705.353 326.047 709.767 326.215 712.317C326.511 716.806 326.298 721.327 326.298 725.837C326.806 725.845 327.315 725.855 327.823 725.863Z" fill="#231F20"/>
<path fill-rule="evenodd" clip-rule="evenodd" d="M867.423 589.781C872.375 579.713 864.935 569.617 871.005 560.106C871.777 571.417 872.511 582.142 873.243 592.869C873.74 592.862 874.237 592.857 874.733 592.849C874.901 590.812 875.071 588.778 875.239 586.742C875.723 586.75 876.204 586.757 876.684 586.765C876.527 590.021 876.499 593.292 876.117 596.521C876.029 597.253 874.648 598.429 873.997 598.346C873.152 598.237 871.995 597.193 871.765 596.338C871.257 594.442 871.245 592.412 870.952 589.71C869.537 593.882 868.375 597.312 867.212 600.74C866.561 600.669 865.912 600.601 865.261 600.532C862.567 588.3 858.843 576.188 861.693 562.708C869.537 570.529 864.372 580.518 867.423 589.781Z" fill="#231F20"/>
<path fill-rule="evenodd" clip-rule="evenodd" d="M855.037 603.276C854.66 609.333 849.656 605.516 847.298 607.803C846.406 606.188 845.736 604.976 844.786 603.257C843.589 605.453 844.197 610.276 840.168 608.047C838.105 606.907 837.181 603.708 835.685 601.349C837.354 599.792 838.836 598.409 840.656 596.708C841.185 598.364 841.634 599.76 842.514 602.503C843.701 598.341 844.541 595.393 845.382 592.445C845.796 592.593 846.21 592.743 846.622 592.891C846.88 594.883 847.134 596.875 847.39 598.867C847.905 598.825 848.42 598.784 848.936 598.74V589.263L850.568 589.177C851.15 593.44 851.734 597.703 852.318 601.967C852.734 601.984 853.153 602.003 853.569 602.021C853.884 594.521 854.196 587.021 854.509 579.521C855.12 579.519 855.728 579.516 856.337 579.513C856.654 586.388 856.97 593.263 857.288 600.137C857.664 600.112 858.04 600.088 858.416 600.065C858.613 598.38 858.809 596.695 859.006 595.013C859.548 595.071 860.089 595.131 860.63 595.191L859.345 606.971C858.785 607.011 858.221 607.052 857.66 607.091C856.908 605.997 856.156 604.904 855.037 603.276Z" fill="#231F20"/>
<path fill-rule="evenodd" clip-rule="evenodd" d="M430.964 559.898C432.508 571.872 433.955 583.862 435.626 595.82C437.116 606.489 435.818 617.562 440.2 627.832C440.555 628.66 440.695 629.858 440.363 630.64C439.812 631.938 438.796 633.042 437.975 634.228C437.194 633.168 435.906 632.189 435.718 631.03C434.979 626.473 434.524 621.868 434.074 617.265C432.394 600.133 430.739 582.994 429.128 565.854C428.946 563.917 429.103 561.948 429.103 559.992C429.723 559.961 430.344 559.929 430.964 559.898Z" fill="#231F20"/>
<path fill-rule="evenodd" clip-rule="evenodd" d="M803.759 706.418C808.916 712.054 809.62 717.278 805.244 719.863C805.123 717.502 805.015 715.404 804.887 712.896C803.852 714.964 803.029 716.606 802.207 718.248C800.867 717.134 799.527 716.019 798.177 714.899C797.507 716.806 796.745 718.967 795.985 721.128C795.476 721.074 794.965 721.019 794.457 720.964C793.953 717.112 793.448 713.264 792.943 709.412C792.647 709.428 792.351 709.442 792.055 709.456C791.584 710.426 791.348 711.688 790.589 712.298C789.471 713.196 787.823 714.306 786.695 714.048C785.808 713.844 785.14 711.762 784.788 710.407C784.353 708.723 784.343 706.928 784.104 704.772C779.223 706.303 777.435 711.718 772.727 711.584C772.367 711.126 772.009 710.668 771.651 710.21C774.253 707.852 776.939 705.582 779.44 703.12C783.232 699.394 785.709 703.048 788.524 704.626C792.468 706.832 796.351 709.15 800.591 711.611C801.499 710.12 802.539 708.418 803.759 706.418Z" fill="#231F20"/>
<path fill-rule="evenodd" clip-rule="evenodd" d="M421.533 639.473C418.441 633.866 414.222 577.578 417.471 573.963C419.335 596.321 421.133 617.878 422.93 639.437C422.465 639.449 421.999 639.459 421.533 639.473Z" fill="#231F20"/>
<path fill-rule="evenodd" clip-rule="evenodd" d="M307.167 712.485C308.263 718.775 309.359 725.064 310.589 732.131C311.476 730.507 312.059 729.433 313.365 727.037C313.561 729.843 313.816 731.441 313.753 733.027C313.64 735.847 313.679 738.78 309.156 737.217C308.236 736.9 306.592 738.68 305.279 739.491C301.788 736.467 299.261 721.589 302.367 716.291C303.111 720.581 303.855 724.873 304.6 729.165C305.056 729.141 305.515 729.116 305.972 729.089C305.564 723.655 305.157 718.22 304.749 712.785C305.556 712.685 306.361 712.584 307.167 712.485Z" fill="#231F20"/>
<path fill-rule="evenodd" clip-rule="evenodd" d="M956.454 600.422C956.987 601.706 957.886 602.966 957.983 604.283C958.27 608.133 960.895 609.865 963.59 612.039C966.338 614.255 968.588 617.283 970.411 620.343C971.028 621.378 969.672 623.585 969.218 625.259C967.924 624.353 966.572 623.517 965.35 622.523C963.282 620.841 961.514 618.654 959.222 617.414C956.302 615.834 950.943 606.922 951.876 603.654C952.323 602.091 953.575 600.761 954.462 599.326C955.126 599.69 955.79 600.055 956.454 600.422Z" fill="#231F20"/>
<path fill-rule="evenodd" clip-rule="evenodd" d="M361.639 634.374C362.987 637.056 364.334 639.738 365.682 642.418C365.922 642.407 366.163 642.395 366.403 642.382C365.503 635.863 364.603 629.34 363.666 622.544C365.404 622.76 365.947 622.73 365.98 622.846C368.423 631.455 372.444 639.972 367.875 649.064C367.38 650.046 366.516 651.166 365.578 651.475C365.072 651.642 363.588 650.366 363.326 649.504C361.908 644.852 360.735 640.123 359.478 635.423C360.199 635.074 360.919 634.726 361.639 634.374Z" fill="#231F20"/>
<path fill-rule="evenodd" clip-rule="evenodd" d="M373.33 678.006C375.687 692.254 378.043 706.504 380.4 720.752C379.911 720.936 379.423 721.124 378.935 721.309C378.034 719.48 376.676 717.738 376.311 715.809C374.927 708.485 373.895 701.097 372.667 693.744C372.122 690.48 371.206 687.264 370.875 683.982C370.68 682.061 371.308 680.056 371.566 678.088C372.154 678.061 372.742 678.033 373.33 678.006Z" fill="#231F20"/>
<path fill-rule="evenodd" clip-rule="evenodd" d="M1024.89 766.079C1014.36 765.808 1008.39 760.199 1002.63 754.478C1001.47 753.328 1001.54 750.943 1001.05 749.128C1002.67 749.56 1004.52 749.631 1005.86 750.488C1010.92 753.71 1015.91 757.063 1020.72 760.642C1022.25 761.782 1023.16 763.764 1024.89 766.079Z" fill="#231F20"/>
<path fill-rule="evenodd" clip-rule="evenodd" d="M1025.1 705.509C1030.8 706.436 1033.82 709.428 1035.91 713.522C1037.78 717.189 1039.53 720.918 1041.14 724.7C1041.49 725.525 1041.31 726.876 1040.83 727.637C1040.57 728.045 1038.73 728.102 1038.31 727.654C1032.5 721.438 1027.46 714.736 1025.1 705.509Z" fill="#231F20"/>
<path fill-rule="evenodd" clip-rule="evenodd" d="M415.048 598.062C415.99 612.472 416.932 626.878 417.978 642.886C416.309 640.772 414.833 639.772 414.754 638.67C413.894 626.624 413.196 614.565 412.622 602.502C412.548 600.948 413.425 599.349 413.862 597.77C414.257 597.869 414.653 597.966 415.048 598.062Z" fill="#231F20"/>
<path fill-rule="evenodd" clip-rule="evenodd" d="M353.07 738.866C355.722 740.956 360.196 768.47 358.531 770.816C353.966 767.41 350.104 745.688 353.07 738.866Z" fill="#231F20"/>
<path fill-rule="evenodd" clip-rule="evenodd" d="M363.101 731.163C363.536 732.761 364.121 734.335 364.378 735.96C365.788 744.884 367.157 753.813 368.409 762.761C368.528 763.608 367.741 764.581 367.376 765.496C366.309 764.791 364.537 764.264 364.31 763.353C363.584 760.447 363.526 757.381 363.041 754.405C362.146 748.923 360.954 743.485 360.25 737.983C359.966 735.767 360.642 733.425 360.882 731.141C361.622 731.149 362.362 731.157 363.101 731.163Z" fill="#231F20"/>
<path fill-rule="evenodd" clip-rule="evenodd" d="M392.297 647.199C391.224 645.303 389.994 644.077 389.864 642.743C389.03 634.238 388.436 625.707 387.772 617.185C387.71 616.391 387.472 615.474 387.77 614.821C388.232 613.813 389.085 612.985 389.772 612.081C390.414 612.867 391.449 613.573 391.625 614.453C392.058 616.63 392.252 618.883 392.269 621.107C392.338 629.338 392.297 637.571 392.297 647.199Z" fill="#231F20"/>
<path fill-rule="evenodd" clip-rule="evenodd" d="M827.32 606.539V601.846C827.688 601.734 828.056 601.622 828.424 601.508C829.025 602.872 829.625 604.236 830.348 605.87C831.072 604.736 831.822 603.566 832.988 601.742C834.125 603.856 835.118 605.416 835.837 607.094C837.257 610.403 836.105 611.495 832.54 611.5C830.56 611.503 828.58 612.872 826.116 613.81C825.445 612.287 824.536 610.219 823.626 608.151C823.309 608.192 822.992 608.232 822.674 608.274C822.897 610.512 823.118 612.752 823.34 614.992C822.937 615.206 822.533 615.419 822.129 615.632C821.326 614.432 819.669 613.036 819.892 612.075C820.393 609.916 821.598 607.788 823.013 606.05C823.446 605.518 825.488 606.291 827.32 606.539Z" fill="#231F20"/>
<path fill-rule="evenodd" clip-rule="evenodd" d="M384.006 650.709C382.911 648.717 380.968 646.767 380.866 644.723C380.351 634.576 380.31 624.407 380.152 614.247C380.143 613.563 380.563 612.872 380.783 612.184C381.324 612.18 381.866 612.172 382.407 612.164C383.212 624.775 384.016 637.384 384.82 649.993C384.548 650.233 384.278 650.472 384.006 650.709Z" fill="#231F20"/>
<path fill-rule="evenodd" clip-rule="evenodd" d="M183.999 781.702C177.705 778.748 174.108 774.582 174.728 767.964C174.879 766.363 176.281 764.879 177.108 763.34C178.708 764.399 181.139 765.114 181.745 766.579C183.335 770.428 184.244 774.579 185.149 778.671C185.347 779.562 184.403 780.71 183.999 781.702Z" fill="#231F20"/>
<path fill-rule="evenodd" clip-rule="evenodd" d="M329.095 580.38C330.069 586.249 331.629 592.107 331.738 597.992C331.785 600.459 328.755 602.979 327.123 605.476C326.679 605.257 326.233 605.041 325.786 604.825C325.286 598.919 324.786 593.016 324.286 587.109C324.877 587.028 325.469 586.945 326.061 586.864C326.509 589.773 326.957 592.683 327.405 595.593C327.766 595.547 328.129 595.5 328.49 595.453L326.687 580.547C327.49 580.492 328.293 580.435 329.095 580.38Z" fill="#231F20"/>
<path fill-rule="evenodd" clip-rule="evenodd" d="M321.792 756.431C323.832 766.649 325.789 776.449 327.744 786.245C327.073 786.559 326.402 786.873 325.733 787.188C324.869 785.947 323.578 784.819 323.205 783.441C318.457 765.991 318.001 759.603 321.792 756.431Z" fill="#231F20"/>
<path fill-rule="evenodd" clip-rule="evenodd" d="M330.299 755.051C331.149 759.999 331.943 764.957 332.865 769.889C333.622 773.944 334.653 777.952 335.287 782.024C335.453 783.089 334.597 784.316 334.209 785.467C333.359 784.756 331.917 784.163 331.754 783.319C330.155 775.035 328.706 766.72 327.398 758.384C327.227 757.299 328.098 756.045 328.486 754.868C329.091 754.928 329.695 754.988 330.299 755.051Z" fill="#231F20"/>
<path fill-rule="evenodd" clip-rule="evenodd" d="M372.184 616.498C374.62 618.943 377.608 640.01 376.784 647.032C373.376 645.958 369.662 622.391 372.184 616.498Z" fill="#231F20"/>
<path fill-rule="evenodd" clip-rule="evenodd" d="M338.928 698.233C339.475 701.214 339.854 704.241 340.607 707.17C341.928 712.318 343.532 717.394 344.886 722.536C345.124 723.441 345.066 724.998 344.522 725.389C343.892 725.84 342.486 725.548 341.588 725.17C340.972 724.913 340.372 724.009 340.235 723.304C338.807 715.976 337.419 708.637 336.187 701.272C336.036 700.366 336.862 699.296 337.234 698.301C337.799 698.277 338.364 698.257 338.928 698.233Z" fill="#231F20"/>
<path fill-rule="evenodd" clip-rule="evenodd" d="M297.665 747.524C296.85 744.978 296.226 743.27 295.758 741.519C294.493 736.795 293.093 732.09 292.189 727.292C291.906 725.798 293.035 724.038 293.518 722.396C294.522 723.696 295.907 724.85 296.454 726.319C297.818 729.98 298.746 733.803 299.954 737.527C301.022 740.816 301.466 743.934 297.665 747.524Z" fill="#231F20"/>
<path fill-rule="evenodd" clip-rule="evenodd" d="M341.731 559.703C342.446 571.227 343.162 582.749 343.949 595.432C340.159 591.591 338.359 563.853 341.731 559.703Z" fill="#231F20"/>
<path fill-rule="evenodd" clip-rule="evenodd" d="M344.172 780.988C339.585 777.303 335.905 753.059 339.523 749.024C341.072 759.682 342.621 770.335 344.172 780.988Z" fill="#231F20"/>
<path fill-rule="evenodd" clip-rule="evenodd" d="M562.937 643.835C568.54 643.613 576.078 650.543 575.964 655.173C575.94 656.092 575.07 657.699 574.477 657.753C572.893 657.9 570.344 657.931 569.78 657.017C567.244 652.908 565.265 648.455 562.937 643.835Z" fill="#231F20"/>
<path fill-rule="evenodd" clip-rule="evenodd" d="M817.154 699.84C817.578 704.522 818.365 709.209 818.273 713.881C818.227 716.189 816.751 718.577 815.518 720.692C815.097 721.416 813.438 721.416 812.346 721.749C812.063 720.752 811.41 719.7 811.557 718.769C812.433 713.173 813.453 707.597 814.531 702.037C814.707 701.14 815.431 700.345 815.902 699.504C816.319 699.616 816.738 699.728 817.154 699.84Z" fill="#231F20"/>
<path fill-rule="evenodd" clip-rule="evenodd" d="M335.973 601.391C335.657 598.489 335.455 595.568 334.999 592.688C334.183 587.521 333.096 582.396 332.401 577.213C332.251 576.093 333.279 574.815 333.763 573.612C334.547 574.547 335.843 575.391 336.029 576.432C337.175 582.817 338.188 589.232 338.973 595.672C339.204 597.573 338.553 599.581 338.307 601.539C337.529 601.489 336.751 601.44 335.973 601.391Z" fill="#231F20"/>
<path fill-rule="evenodd" clip-rule="evenodd" d="M200.248 748.118C201.534 756.634 202.822 765.152 204.214 774.358C199.132 772.252 196.137 754.728 198.618 748.376C199.161 748.29 199.704 748.204 200.248 748.118Z" fill="#231F20"/>
<path fill-rule="evenodd" clip-rule="evenodd" d="M318.307 789.733C314.634 782.706 312.766 775.933 313.57 768.241C318.434 770.829 321.669 785.202 318.307 789.733Z" fill="#231F20"/>
<path fill-rule="evenodd" clip-rule="evenodd" d="M207.903 742.767C208.363 746.819 208.698 750.889 209.324 754.915C209.763 757.736 210.718 760.472 211.204 763.288C211.411 764.488 211.01 765.793 210.883 767.051C209.779 766.165 208.07 765.485 207.684 764.357C206.668 761.363 206.064 758.199 205.598 755.059C205.158 752.089 204.94 749.064 204.959 746.064C204.966 744.86 205.863 743.663 206.354 742.46C206.871 742.564 207.386 742.665 207.903 742.767Z" fill="#231F20"/>
<path fill-rule="evenodd" clip-rule="evenodd" d="M347.49 700.598C347.86 703.007 348.044 705.467 348.65 707.816C349.51 711.158 350.871 714.379 351.615 717.738C351.887 718.964 351.002 720.447 350.646 721.811C349.383 721.191 347.132 720.718 347.018 719.931C346.148 713.999 345.672 708.007 345.172 702.024C345.134 701.579 345.851 701.074 346.218 700.595C346.643 700.595 347.067 700.598 347.49 700.598Z" fill="#231F20"/>
<path fill-rule="evenodd" clip-rule="evenodd" d="M1070.58 690.899C1068.88 690.735 1066.69 691.186 1065.57 690.293C1061.26 686.866 1057.7 679.003 1059.24 675.803C1063.34 680.337 1067.22 684.631 1071.11 688.927C1070.93 689.585 1070.76 690.243 1070.58 690.899Z" fill="#231F20"/>
<path fill-rule="evenodd" clip-rule="evenodd" d="M344.032 563.297C348.38 566.01 351.192 582.188 348.192 588.318C346.865 580.336 345.537 572.357 344.032 563.297Z" fill="#231F20"/>
<path fill-rule="evenodd" clip-rule="evenodd" d="M715.088 640.556C719.291 640.871 725.044 649.348 723.823 652.127C723.495 652.873 721.027 653.613 720.793 653.327C718.4 650.413 716.088 647.389 714.184 644.144C713.711 643.337 714.789 641.616 715.088 640.556Z" fill="#231F20"/>
<path fill-rule="evenodd" clip-rule="evenodd" d="M856.041 655.418V681.496C855.557 681.508 855.07 681.522 854.586 681.535V655.519C855.07 655.486 855.557 655.451 856.041 655.418Z" fill="#231F20"/>
<path fill-rule="evenodd" clip-rule="evenodd" d="M351.65 697.257C353.343 703.126 355.087 708.981 356.651 714.882C356.81 715.481 355.847 717.007 355.459 716.989C354.512 716.945 352.971 716.429 352.776 715.775C351.79 712.459 350.919 709.069 350.472 705.645C350.107 702.858 350.398 699.986 350.398 697.153C350.815 697.186 351.232 697.223 351.65 697.257Z" fill="#231F20"/>
<path fill-rule="evenodd" clip-rule="evenodd" d="M359.908 658.363C358.488 655.981 357.518 654.931 357.198 653.713C356.164 649.754 355.29 645.749 354.546 641.727C354.38 640.837 355.007 639.801 355.27 638.833C356.119 639.311 357.512 639.618 357.728 640.298C359.159 644.801 360.426 649.361 361.515 653.959C361.714 654.798 360.852 655.89 359.908 658.363Z" fill="#231F20"/>
<path fill-rule="evenodd" clip-rule="evenodd" d="M377.826 556.789C372.102 550.388 374.18 541.984 372.043 534.661C372.823 534.477 373.603 534.292 374.382 534.106C376.058 541.538 377.735 548.972 379.411 556.406C378.882 556.534 378.354 556.661 377.826 556.789Z" fill="#231F20"/>
<path fill-rule="evenodd" clip-rule="evenodd" d="M852.102 685.124C848.696 683.142 847.858 666.301 852.102 659.984V685.124Z" fill="#231F20"/>
<path fill-rule="evenodd" clip-rule="evenodd" d="M301.281 774.158C301.999 776.387 302.803 778.226 303.155 780.147C303.537 782.223 302.709 784.707 306.142 785.184C306.503 785.234 306.369 788.86 306.482 791.215C299.842 789.012 297.043 779.196 301.281 774.158Z" fill="#231F20"/>
<path fill-rule="evenodd" clip-rule="evenodd" d="M186.437 754.517C188.175 761.749 189.914 768.983 191.654 776.217C191.257 776.465 190.858 776.711 190.462 776.959C189.655 776.522 188.258 776.214 188.131 775.634C186.643 768.765 185.345 761.855 183.997 754.957C184.81 754.811 185.623 754.662 186.437 754.517Z" fill="#231F20"/>
<path fill-rule="evenodd" clip-rule="evenodd" d="M220.681 762.855C215.685 763.506 213.091 753.254 216.811 743.478C217.465 746.59 218.145 749.699 218.768 752.819C219.412 756.038 220 759.27 220.681 762.855Z" fill="#231F20"/>
<path fill-rule="evenodd" clip-rule="evenodd" d="M252.768 746.598C252.046 739.691 251.396 733.827 250.894 727.95C250.854 727.475 251.772 726.702 252.393 726.475C252.768 726.338 253.862 726.944 253.898 727.291C254.493 733.144 254.986 739.01 255.429 744.876C255.445 745.09 254.713 745.36 252.768 746.598Z" fill="#231F20"/>
<path fill-rule="evenodd" clip-rule="evenodd" d="M192.691 753.9C193.391 755.47 194.279 756.988 194.755 758.624C195.766 762.097 196.65 765.618 197.395 769.157C197.631 770.28 197.427 771.582 197.07 772.686C196.958 773.033 195.244 773.353 195.027 773.08C194.338 772.212 193.81 771.102 193.575 770.009C192.815 766.468 192.186 762.897 191.56 759.326C191.275 757.697 191.116 756.042 190.899 754.402C191.496 754.236 192.094 754.066 192.691 753.9Z" fill="#231F20"/>
<path fill-rule="evenodd" clip-rule="evenodd" d="M353.925 566.81C355.538 570.695 357.358 574.515 358.609 578.515C358.895 579.43 357.215 580.96 356.441 582.208C355.682 581.075 354.67 580.034 354.218 578.788C353.358 576.416 352.743 573.946 352.173 571.482C351.863 570.143 351.857 568.734 351.713 567.356C352.451 567.174 353.187 566.992 353.925 566.81Z" fill="#231F20"/>
<path fill-rule="evenodd" clip-rule="evenodd" d="M387.186 531.607C388.398 537.919 389.532 543.825 390.66 549.708C387.744 550.109 386.192 547.401 384.882 538.88C384.004 533.159 384.422 532.052 387.186 531.607Z" fill="#231F20"/>
<path fill-rule="evenodd" clip-rule="evenodd" d="M834.068 695.944V674.373C834.496 674.353 834.927 674.329 835.355 674.305C835.891 681.483 836.426 688.663 836.962 695.84C835.996 695.873 835.034 695.911 834.068 695.944Z" fill="#231F20"/>
<path fill-rule="evenodd" clip-rule="evenodd" d="M846.057 687.282C841.601 683.897 840.679 675.149 844.39 666.913C844.925 673.462 845.462 680.009 846.057 687.282Z" fill="#231F20"/>
<path fill-rule="evenodd" clip-rule="evenodd" d="M369.097 551.052C369.902 558.143 370.641 564.645 371.509 572.287C366.964 567.969 365.733 555.055 369.097 551.052Z" fill="#231F20"/>
<path fill-rule="evenodd" clip-rule="evenodd" d="M247.051 733.012C247.584 737.58 248.188 742.142 248.562 746.72C248.607 747.285 247.5 748.096 246.766 748.49C246.467 748.65 245.582 748.129 245.227 747.7C243.975 746.184 244.268 735.298 245.535 733.214C246.04 733.148 246.546 733.08 247.051 733.012Z" fill="#231F20"/>
<path fill-rule="evenodd" clip-rule="evenodd" d="M308.988 771.431C310.082 778.204 313.245 783.816 312.028 791.095C308.521 787.321 306.536 774.691 308.988 771.431Z" fill="#231F20"/>
<path fill-rule="evenodd" clip-rule="evenodd" d="M363.168 577.792C361.336 571.56 359.504 565.33 357.673 559.098C358.356 558.885 359.039 558.672 359.721 558.461C361.713 564.62 363.705 570.781 365.697 576.942C364.853 577.226 364.011 577.51 363.168 577.792Z" fill="#231F20"/>
<path fill-rule="evenodd" clip-rule="evenodd" d="M344.042 651.329C345.43 654.9 346.92 658.439 348.115 662.072C348.355 662.803 347.682 664.129 347.02 664.739C346.686 665.045 344.827 664.535 344.7 664.092C343.542 660.095 342.615 656.027 341.622 651.983C342.428 651.764 343.235 651.545 344.042 651.329Z" fill="#231F20"/>
<path fill-rule="evenodd" clip-rule="evenodd" d="M352.725 661.647C352.117 656.746 351.51 651.842 350.777 645.92C355.464 649.892 356.864 658.062 354.345 661.483C353.805 661.538 353.265 661.592 352.725 661.647Z" fill="#231F20"/>
<path fill-rule="evenodd" clip-rule="evenodd" d="M824.21 697.488C824.522 695.567 824.836 693.641 825.148 691.717C825.657 691.731 826.165 691.74 826.672 691.751C827.16 697.923 827.646 704.092 828.134 710.264L826.178 710.6C825.85 708.504 825.526 706.404 825.2 704.308C824.841 701.999 824.478 699.685 824.12 697.373L824.21 697.488Z" fill="#231F20"/>
<path fill-rule="evenodd" clip-rule="evenodd" d="M287.806 734.941C289.374 735.923 291.701 736.564 292.333 737.968C293.285 740.081 293.053 742.731 293.324 745.152C291.881 744.663 289.652 744.577 289.154 743.605C287.984 741.319 287.641 738.608 286.965 736.069C287.245 735.693 287.526 735.316 287.806 734.941Z" fill="#231F20"/>
<path fill-rule="evenodd" clip-rule="evenodd" d="M317.712 595.651C318.236 599.367 318.874 603.072 319.17 606.804C319.222 607.451 317.826 608.211 317.1 608.919C316.318 608.078 314.856 607.222 314.876 606.402C314.957 602.81 315.469 599.23 315.824 595.643C316.454 595.646 317.082 595.648 317.712 595.651Z" fill="#231F20"/>
<path fill-rule="evenodd" clip-rule="evenodd" d="M320.923 606.01C320.431 600.308 317.89 595.57 321.625 590.708C324.166 594.552 324.085 602.33 320.923 606.01Z" fill="#231F20"/>
<path fill-rule="evenodd" clip-rule="evenodd" d="M830.596 703.324C830.633 697.788 827.122 692.294 831.57 686.696C831.974 692.226 832.377 697.754 832.781 703.283C832.053 703.296 831.324 703.311 830.596 703.324Z" fill="#231F20"/>
<path fill-rule="evenodd" clip-rule="evenodd" d="M239.1 740.712C239.35 741.291 239.684 741.848 239.837 742.452C240.577 745.352 241.369 748.246 241.904 751.186C242.032 751.9 241.433 753.202 240.834 753.46C240.24 753.715 238.6 753.142 238.496 752.686C237.734 749.366 237.182 745.994 236.721 742.616C236.624 741.9 237.17 741.095 237.421 740.332C237.981 740.458 238.54 740.584 239.1 740.712Z" fill="#231F20"/>
<path fill-rule="evenodd" clip-rule="evenodd" d="M225.022 745.374C226.018 750.798 226.778 754.942 227.633 759.592C222.31 757.41 221.249 752.019 225.022 745.374Z" fill="#231F20"/>
<path fill-rule="evenodd" clip-rule="evenodd" d="M824.119 697.374V713.783C823.249 712.713 822.025 711.902 821.962 711.013C821.667 706.786 821.641 702.538 821.714 698.301C821.719 698.014 823.339 697.757 824.209 697.486C824.21 697.489 824.119 697.374 824.119 697.374Z" fill="#231F20"/>
<path fill-rule="evenodd" clip-rule="evenodd" d="M231.322 744.105C234.95 748.723 235.414 753.127 232.528 755.553C229.771 751.985 229.215 746.704 231.322 744.105Z" fill="#231F20"/>
<path fill-rule="evenodd" clip-rule="evenodd" d="M598.618 498.817C600.422 501.501 601.523 503.137 602.623 504.774C601.289 505.61 599.635 507.387 598.69 507.066C597.201 506.562 595.698 504.814 595.177 503.265C594.922 502.502 596.853 501.003 598.618 498.817Z" fill="#231F20"/>
<path fill-rule="evenodd" clip-rule="evenodd" d="M719.83 679.238C718.221 681.254 717.329 682.371 716.437 683.489C714.916 681.883 713.394 680.279 711.872 678.673C712.869 677.765 714.073 675.957 714.821 676.129C716.425 676.495 717.793 677.886 719.83 679.238Z" fill="#231F20"/>
<path fill-rule="evenodd" clip-rule="evenodd" d="M283.999 738.639C284.983 742.3 286.002 745.948 286.89 749.631C286.971 749.97 286.099 750.939 285.855 750.876C285.033 750.667 283.695 750.218 283.619 749.702C283.091 746.131 282.831 742.522 282.486 738.926C282.99 738.832 283.495 738.735 283.999 738.639Z" fill="#231F20"/>
<path fill-rule="evenodd" clip-rule="evenodd" d="M171.125 768.157C171.993 770.412 172.953 772.348 173.431 774.395C173.653 775.343 172.937 776.509 172.648 777.579C171.585 777.113 169.891 776.905 169.575 776.133C168.427 773.319 168.307 770.449 171.125 768.157Z" fill="#231F20"/>
<path fill-rule="evenodd" clip-rule="evenodd" d="M484.771 448.003C489.45 461.431 486.374 475.578 489.311 490.166C486.005 487.386 482.843 455.486 484.771 448.003Z" fill="#231F20"/>
</g>
</g>
<path fill-rule="evenodd" clip-rule="evenodd" d="M413.626 517.586C431.93 488.576 448.658 459.512 468.097 432.388C477.062 419.878 473.828 415.023 463.116 408.368C407.812 374.014 347.46 367.114 285.29 379.328C135.55 408.747 57.1557 594.89 140.917 724.416C194.332 807.012 293.706 849.746 386.412 827.236C487.453 802.703 556.754 692.476 534.425 592.823C530.784 576.568 524.39 567.694 506.316 565.159C475.384 560.818 444.93 553.099 414.244 546.966C386.434 541.408 358.58 536.075 330.248 530.548C321.752 567.334 313.761 601.932 305.446 637.927C341.013 645.243 375.201 652.276 409.456 659.322C402.692 682.128 368.537 703.806 338.213 704.782C293.068 706.234 264.702 681.951 244.301 644.234C217.001 593.768 241.549 521.771 294.185 499.094C336.993 480.65 375.288 490.74 413.626 517.586Z" fill="white"/>
<path fill-rule="evenodd" clip-rule="evenodd" d="M1076.79 509.715C1045.7 385.743 927.253 332.933 822.883 356.201C676.405 388.857 597.278 539.843 654.258 678.955C688.573 762.729 751.507 815.929 842.054 826.405C907.45 833.968 966.918 811.352 1015.85 765.599C1043.67 739.589 1064.06 709.197 1069.53 670.1C1052.77 663.912 1036.93 657.733 1020.87 652.232C1004.43 646.604 987.765 641.64 971.617 636.52C935.554 692.78 888.287 715.193 837.273 701.144C793.451 689.076 760.902 645.797 759.214 597.351C757.095 536.496 779.603 496.396 825.326 480.14C850.43 471.215 876.534 469.013 901.538 477.879C932.962 489.017 956.713 510.556 971.654 542.152C1007.16 531.195 1041.57 520.58 1076.79 509.715Z" fill="white"/>
<path fill-rule="evenodd" clip-rule="evenodd" d="M537.128 200.95C538.712 201.466 540.295 201.981 541.878 202.497C543.975 198.478 546.966 194.682 548.035 190.406C559.442 144.729 570.858 99.0477 581.587 53.2091C586.311 33.0357 573.199 12.5117 553.708 7.24507C533.958 1.90774 511.672 12.5411 505.894 32.1277C498.671 56.6091 493.415 81.6717 487.116 107.269C506.924 112.764 525.73 117.981 544.535 123.198C543.998 125.328 543.463 127.456 542.928 129.585C524.05 125.234 505.171 120.882 486.055 116.477C484.392 121.078 482.546 125.069 481.5 129.261C474.491 157.34 478.4 163.757 506.754 170.932C517.768 173.72 528.836 176.298 538.962 178.75C538.25 187.378 537.69 194.164 537.128 200.95Z" fill="white"/>
<path fill-rule="evenodd" clip-rule="evenodd" d="M645.805 53.2535C662.323 54.2321 673.931 44.3868 674.723 28.7201C675.48 13.7895 663.797 0.720143 649.076 0.0241429C635.105 -0.635857 620.935 12.3561 620.445 26.2761C619.949 40.4161 631.204 52.3881 645.805 53.2535Z" fill="white"/>
<path fill-rule="evenodd" clip-rule="evenodd" d="M413.626 517.586C375.288 490.74 336.993 480.65 294.185 499.094C241.549 521.771 217.001 593.768 244.301 644.234C264.702 681.951 293.068 706.234 338.213 704.782C368.537 703.806 402.692 682.128 409.456 659.322C375.201 652.276 341.013 645.243 305.446 637.927C313.761 601.932 321.752 567.334 330.248 530.548C358.58 536.075 386.434 541.408 414.244 546.966C444.93 553.099 475.384 560.818 506.316 565.159C524.39 567.694 530.784 576.568 534.425 592.823C556.754 692.476 487.453 802.703 386.412 827.236C293.706 849.746 194.332 807.012 140.917 724.416C57.1557 594.89 135.55 408.747 285.29 379.328C347.46 367.114 407.812 374.014 463.116 408.368C473.828 415.023 477.062 419.878 468.097 432.388C448.658 459.512 431.93 488.576 413.626 517.586Z" fill="#231F20"/>
<path fill-rule="evenodd" clip-rule="evenodd" d="M1076.79 509.715C1041.57 520.58 1007.16 531.195 971.654 542.152C956.713 510.556 932.962 489.017 901.538 477.879C876.534 469.013 850.43 471.215 825.326 480.14C779.603 496.396 757.095 536.496 759.214 597.351C760.902 645.797 793.451 689.076 837.273 701.144C888.287 715.193 935.554 692.78 971.617 636.52C987.765 641.64 1004.43 646.604 1020.87 652.232C1036.93 657.733 1052.77 663.912 1069.53 670.1C1064.06 709.197 1043.67 739.589 1015.85 765.599C966.918 811.352 907.45 833.968 842.054 826.405C751.507 815.929 688.573 762.729 654.258 678.955C597.278 539.843 676.405 388.857 822.883 356.201C927.253 332.933 1045.7 385.743 1076.79 509.715Z" fill="#231F20"/>
<path fill-rule="evenodd" clip-rule="evenodd" d="M642.055 259.596C627.061 285.268 614.363 307.007 600.677 330.442H645.29C644.285 308.424 643.295 286.759 642.055 259.596ZM597.659 205.406C594.845 257.59 557.514 289.062 538.274 330.908C553.849 330.908 567.625 331.398 581.325 330.6C585.269 330.371 590.561 327.383 592.574 324.052C608.987 296.89 624.769 269.346 641.323 240.922C627.471 229.655 614.443 219.058 597.659 205.406ZM550.565 372.611C528.474 372.611 508.839 373.175 489.263 372.332C481.417 371.995 471.099 370.906 466.606 365.922C461.317 360.056 458.859 349.362 459.681 341.218C460.093 337.142 470.199 332.02 476.502 331.019C487.101 329.334 498.165 330.556 510.862 330.556C500.381 315.762 505.037 304.564 514.899 292.772C544.593 257.274 559.114 214.978 566.611 170.034C568.581 158.238 573.371 150.252 584.535 144.91C597.366 138.77 609.303 130.756 624.627 121.803C626.533 133.011 631.907 143.816 628.975 151.419C621.458 170.919 629.479 182.53 643.523 193.375C648.705 197.378 653.458 201.938 660.478 208.048C669.635 192.232 678.181 177.474 688.437 159.758C651.179 155.35 629.982 133.87 619.842 99.9229C616.635 118.858 608.325 126.122 573.635 140.075C579.191 117.451 582.998 95.187 590.585 74.2976C593.733 65.6283 603.91 56.2603 612.767 53.6963C625.519 50.0083 635.583 59.5869 640.85 71.4896C646.361 83.9549 651.615 96.6963 655.199 109.802C658.449 121.682 664.847 128.319 676.674 131.151C685.175 133.184 693.705 135.954 701.474 139.874C705.826 142.07 710.625 146.875 711.523 151.263C712.183 154.492 706.899 158.984 704.185 162.855C692.801 179.095 681.338 195.279 670.083 211.607C669.334 212.691 669.385 215.314 670.189 216.335C689.153 240.464 676.561 268.427 679.425 294.459C680.673 305.804 677.902 317.592 676.881 330.114C680.897 331.035 689.026 331.84 696.266 334.807C707.447 339.386 711.059 349.018 709.109 360.567C707.141 372.219 698.394 372.558 689.001 372.43C668.097 372.148 647.185 372.343 624.917 372.343V852.076C639.826 852.076 654.506 851.832 669.171 852.172C677.397 852.362 685.991 852.218 693.719 854.547C705.79 858.184 710.842 867.696 709.258 880.279C707.697 892.674 699.165 893.632 688.785 893.584C623.181 893.279 557.575 893.524 491.971 893.271C484.961 893.244 475.683 893.524 471.481 889.479C465.211 883.446 459.75 873.943 458.985 865.458C457.961 854.108 467.985 852.875 477.737 853.048C501.842 853.478 525.962 853.19 550.565 853.19V372.611Z" fill="#231F20"/>
<path fill-rule="evenodd" clip-rule="evenodd" d="M526.985 44.4664C525.545 44.2304 524.105 43.9957 522.665 43.7611C510.794 81.5931 503.336 79.0784 555.452 87.9171C557.969 76.6291 560.497 65.2997 563.022 53.9717C561.34 53.4997 559.653 53.0291 557.968 52.5571C554.938 61.3557 551.909 70.1504 548.485 80.0904C539.406 77.7504 530.729 75.5131 522.29 73.3357C524.052 62.5051 525.518 53.4851 526.985 44.4664ZM537.128 200.95C537.689 194.164 538.25 187.378 538.962 178.75C528.837 176.3 517.769 173.72 506.753 170.933C478.401 163.758 474.492 157.341 481.5 129.261C482.545 125.07 484.393 121.078 486.056 116.477C505.172 120.884 524.05 125.234 542.929 129.585C543.462 127.457 543.998 125.328 544.534 123.198C525.729 117.982 506.925 112.764 487.116 107.27C493.414 81.6717 498.672 56.6091 505.893 32.1291C511.672 12.5411 533.957 1.90909 553.708 7.24509C573.198 12.5131 586.31 33.0371 581.586 53.2091C570.857 99.0477 559.442 144.729 548.034 190.406C546.966 194.682 543.976 198.478 541.877 202.497C540.294 201.982 538.712 201.466 537.128 200.95Z" fill="#231F20"/>
<path fill-rule="evenodd" clip-rule="evenodd" d="M645.805 53.2535C631.204 52.3881 619.949 40.4161 620.445 26.2761C620.935 12.3561 635.105 -0.635857 649.076 0.0241429C663.797 0.720143 675.48 13.7895 674.723 28.7201C673.931 44.3868 662.323 54.2321 645.805 53.2535Z" fill="#231F20"/>
<path fill-rule="evenodd" clip-rule="evenodd" d="M526.985 44.4663C525.518 53.485 524.052 62.505 522.29 73.3357C530.729 75.513 539.406 77.7503 548.485 80.0903C551.909 70.1503 554.938 61.3557 557.968 52.557C559.653 53.029 561.34 53.4997 563.022 53.9717C560.497 65.2997 557.969 76.629 555.452 87.917C503.336 79.0783 510.794 81.593 522.665 43.761C524.105 43.9957 525.545 44.2303 526.985 44.4663Z" fill="white"/>
</svg>
