<svg width="60" height="60" viewBox="0 0 60 60" fill="none" xmlns="http://www.w3.org/2000/svg">
<rect width="60" height="60" rx="16" fill="#F5FDFF"/>
<path fill-rule="evenodd" clip-rule="evenodd" d="M46.4393 42.7134C46.7903 42.287 46.696 41.6588 46.2526 41.3295C45.8093 41.0002 45.185 41.0946 44.8316 41.519C42.6218 44.1725 39.69 46.1402 36.3814 47.1768C32.754 48.3132 28.86 48.2721 25.2574 47.0594C21.6548 45.8467 18.5286 43.5246 16.3269 40.4259C14.1251 37.3272 12.9609 33.6111 13.001 29.8101C13.0411 26.0091 14.2835 22.3183 16.5501 19.2668C18.8168 16.2153 21.9912 13.9597 25.6186 12.8233C29.246 11.6868 33.14 11.7279 36.7426 12.9406C40.0286 14.0468 42.9182 16.0759 45.0715 18.7754C45.0819 18.7883 45.0924 18.801 45.1032 18.8133L44.1644 19.3837C43.5065 19.7834 43.528 20.7454 44.2031 21.1153L48.0006 23.196C48.6757 23.5659 49.498 23.0663 49.4808 22.2967L49.384 17.9676C49.3668 17.198 48.5229 16.7356 47.865 17.1353L46.8075 17.7779C46.7793 17.7215 46.7449 17.667 46.7041 17.6152C44.3044 14.5724 41.067 12.286 37.3807 11.0451C33.3778 9.69767 29.0511 9.65202 25.0207 10.9147C20.9903 12.1774 17.4631 14.6837 14.9446 18.0742C12.4261 21.4648 11.0457 25.5656 11.0011 29.789C10.9566 34.0123 12.2502 38.1414 14.6965 41.5843C17.1429 45.0273 20.6164 47.6074 24.6193 48.9549C28.6222 50.3023 32.9489 50.348 36.9793 49.0853C40.691 47.9224 43.9759 45.7049 46.4393 42.7134Z" fill="#015F74"/>
<mask id="mask0_4931_16196" style="mask-type:alpha" maskUnits="userSpaceOnUse" x="18" y="18" width="24" height="24">
<rect x="18" y="18" width="24" height="24" fill="#D9D9D9"/>
</mask>
<g mask="url(#mask0_4931_16196)">
<path d="M31.425 38.7L25.275 32.3C25.1917 32.2167 25.125 32.1125 25.075 31.9875C25.025 31.8625 25 31.7333 25 31.6V31C25 30.7167 25.0958 30.4792 25.2875 30.2875C25.4792 30.0958 25.7167 30 26 30H28.5C29.3833 30 30.1458 29.7125 30.7875 29.1375C31.4292 28.5625 31.8167 27.85 31.95 27H25C24.7167 27 24.4792 26.9042 24.2875 26.7125C24.0958 26.5208 24 26.2833 24 26C24 25.7167 24.0958 25.4792 24.2875 25.2875C24.4792 25.0958 24.7167 25 25 25H31.65C31.3667 24.4167 30.9458 23.9375 30.3875 23.5625C29.8292 23.1875 29.2 23 28.5 23H25C24.7167 23 24.4792 22.9042 24.2875 22.7125C24.0958 22.5208 24 22.2833 24 22C24 21.7167 24.0958 21.4792 24.2875 21.2875C24.4792 21.0958 24.7167 21 25 21H35C35.2833 21 35.5208 21.0958 35.7125 21.2875C35.9042 21.4792 36 21.7167 36 22C36 22.2833 35.9042 22.5208 35.7125 22.7125C35.5208 22.9042 35.2833 23 35 23H32.75C32.9833 23.2833 33.1917 23.5917 33.375 23.925C33.5583 24.2583 33.7 24.6167 33.8 25H35C35.2833 25 35.5208 25.0958 35.7125 25.2875C35.9042 25.4792 36 25.7167 36 26C36 26.2833 35.9042 26.5208 35.7125 26.7125C35.5208 26.9042 35.2833 27 35 27H33.975C33.8417 28.4167 33.2583 29.6042 32.225 30.5625C31.1917 31.5208 29.95 32 28.5 32H27.775L32.875 37.3C33.175 37.6167 33.2375 37.9792 33.0625 38.3875C32.8875 38.7958 32.5833 39 32.15 39C32.0167 39 31.8875 38.975 31.7625 38.925C31.6375 38.875 31.525 38.8 31.425 38.7Z" fill="#01AFD1"/>
</g>
</svg>
